<?xml version="1.0" standalone="no"?>
<!DOCTYPE svg PUBLIC "-//W3C//DTD SVG 1.1//EN" "http://www.w3.org/Graphics/SVG/1.1/DTD/svg11.dtd">
<svg xmlns="http://www.w3.org/2000/svg">
<metadata>Generated by Fontastic.me</metadata>
<defs>
<font id="zmod-icon-set1" horiz-adv-x="512">
<font-face font-family="zmod-icon-set1" units-per-em="512" ascent="480" descent="-32"/>
<missing-glyph horiz-adv-x="512" />

<glyph glyph-name="greencirclecheck" unicode="&#57346;" d="M256 512c-141 0-256-115-256-256 0-141 115-256 256-256 141 0 256 115 256 256 0 141-115 256-256 256z m152-184l-175-195c-4-4-10-6-16-6-6 0-12 2-16 6l-97 92c-8 8-8 25 0 33 9 8 25 8 33 0l78-78 158 178c8 9 24 9 33 0 10-8 10-22 2-30z"/>
<glyph glyph-name="menu" unicode="&#57345;" d="M64 416l0-64 384 0 0 64z m0-192l384 0 0 64-384 0z m0-128l384 0 0 64-384 0z"/>
<glyph glyph-name="circle-plus" unicode="&#57348;" d="M256 0c-141 0-256 115-256 256 0 141 115 256 256 256 141 0 256-115 256-256 0-141-115-256-256-256z m0 481c-124 0-225-101-225-225 0-124 101-225 225-225 124 0 225 101 225 225 0 124-101 225-225 225z m129-240l-256 0c-9 0-16 6-16 15 0 8 7 15 16 15l256 0c8 0 15-7 15-15 0-9-7-15-15-15z m-128-128c-9 0-16 6-16 15l0 256c0 8 7 15 16 15 8 0 15-7 15-15l0-256c0-9-7-15-15-15z"/>
<glyph glyph-name="circle-x" unicode="&#57349;" d="M256 512c-141 0-256-115-256-256 0-141 115-256 256-256 141 0 256 115 256 256 0 141-115 256-256 256z m126-363c8-8 8-21 0-29-4-4-9-6-15-6-5 0-10 2-14 6l-97 97-97-97c-4-4-9-6-14-6-6 0-11 2-15 6-8 8-8 21 0 29l97 97-97 97c-8 8-8 21 0 29 8 8 21 8 29 0l97-97 97 97c8 8 21 8 29 0 8-8 8-21 0-29l-97-97z"/>
<glyph glyph-name="circle-expando" unicode="&#57351;" d="M256 512c-141 0-256-115-256-256 0-141 115-256 256-256 141 0 256 115 256 256 0 141-115 256-256 256z m148-240l-123-123c-4-4-10-6-15-6-5 0-10 2-14 6l-123 123c-8 8-8 21 0 29 8 8 21 8 29 0l108-108 109 108c8 8 21 8 29 0 8-8 8-21 0-29z"/>
<glyph glyph-name="circle-expando-left" unicode="&#57352;" d="M256 512c-141 0-256-115-256-256 0-141 115-256 256-256 141 0 256 115 256 256 0 141-115 256-256 256z m66-375c8-8 8-21 0-29-4-4-10-6-15-6-5 0-10 2-14 6l-123 123c-8 8-8 21 0 29l123 123c8 8 21 8 29 0 8-8 8-21 0-29l-109-108z"/>
<glyph glyph-name="circle-expando-right" unicode="&#57353;" d="M256 512c-141 0-256-115-256-256 0-141 115-256 256-256 141 0 256 115 256 256 0 141-115 256-256 256z m107-281l-123-123c-4-4-9-6-15-6-5 0-10 2-14 6-8 8-8 21 0 29l108 109-108 108c-8 8-8 21 0 29 8 8 21 8 29 0l123-123c8-8 8-21 0-29z"/>
<glyph glyph-name="circle-expando-up" unicode="&#57354;" d="M256 512c-141 0-256-115-256-256 0-141 115-256 256-256 141 0 256 115 256 256 0 141-115 256-256 256z m148-322c-4-4-10-6-15-6-5 0-10 2-14 6l-109 109-108-109c-4-4-9-6-15-6-5 0-10 2-14 6-8 8-8 21 0 29l123 123c8 8 21 8 29 0l123-123c8-8 8-21 0-29z"/>
<glyph glyph-name="x-thick" unicode="&#57355;" d="M312 256l188 188c16 16 16 41 0 56-15 16-40 16-56 0l-188-188-188 188c-16 16-41 16-56 0-16-15-16-40 0-56l188-188-188-188c-16-16-16-41 0-56 7-8 18-12 28-12 10 0 20 4 28 12l188 188 188-188c8-8 18-12 28-12 10 0 21 4 28 12 16 15 16 40 0 56z"/>
<glyph glyph-name="x-thin" unicode="&#57356;" d="M286 256l220 219c8 9 8 22 0 31-9 8-22 8-31 0l-219-220-219 220c-9 8-22 8-31 0-8-9-8-22 0-31l220-219-220-219c-8-9-8-22 0-31 5-4 10-6 16-6 5 0 11 2 15 6l219 220 219-220c4-4 10-6 16-6 5 0 11 2 15 6 8 9 8 22 0 31z"/>
<glyph glyph-name="expando-down" unicode="&#57357;" d="M256 114c-7 0-15 3-20 8l-228 228c-5 5-8 12-8 20 0 7 3 14 8 20 11 11 29 11 41 0l207-208 207 208c12 11 30 11 41 0 5-6 8-13 8-20 0-8-3-15-8-20l-228-228c-5-5-13-8-20-8z"/>
<glyph glyph-name="expando-up" unicode="&#57360;" d="M256 398c7 0 15-3 20-8l227-228c6-5 9-12 9-20 0-7-3-14-9-20-11-11-29-11-40 0l-207 207-207-207c-11-11-29-11-40 0-6 6-9 13-9 20 0 8 3 15 9 20l227 228c5 5 13 8 20 8z"/>
<glyph glyph-name="searchglass" unicode="&#57363;" d="M495 46l-155 148c35 34 56 80 56 131 0 103-87 187-194 187-106 0-193-84-193-187 0-103 87-187 193-187 35 0 67 9 95 24l161-155c5-5 12-7 19-7 7 0 14 3 19 8 10 11 10 27-1 38z m-433 279c0 74 63 134 140 134 78 0 141-60 141-134 0-74-63-134-141-134-77 0-140 60-140 134z"/>
<glyph glyph-name="zlogo" unicode="&#57364;" d="M0 512l0-512 512 0 0 512z m282-110c11-5 51-33 65-43-45-1-134-20-171-33 30 23 87 67 106 76z m-156-124c24 11 92 31 157 46 0 0-125-115-159-151l28 78c-22-3-32-4-62-11z m219-106c-109-7-228-46-240-52l14 41c37 18 129 51 243 59-2-8-14-39-17-48z m39 111c0 0-5-12-10-27-44-3-112-17-146-29 17 16 128 126 128 126 43-29 87-65 87-65z"/>
<glyph glyph-name="school" unicode="&#57369;" d="M85 199c0 0 171-86 171-86 0 0 141 69 141 69-1-7-2-15-4-24-1-8-2-14-3-18-1-3-2-7-5-11-4-5-8-9-13-12-5-4-13-7-23-12-13-6-27-13-41-21-13-7-24-13-32-17-8-4-15-6-20-6-5 0-12 3-20 7-9 5-20 11-33 19-14 8-28 15-41 21-25 10-42 22-53 35-11 12-19 31-24 56m415 126c8-5 12-11 12-17 0-7-4-12-12-17 0 0-40-23-40-23 0 0-158 53-158 53-7 12-23 18-46 18-14 0-25-3-34-8-10-6-14-13-14-21 0-8 4-15 14-20 9-6 20-8 34-8 9 0 15 0 18 2 0 0 150-35 150-35 0 0-137-78-137-78-21-11-41-11-62 0 0 0-213 120-213 120-8 5-12 10-12 17 0 6 4 12 12 17 0 0 213 119 213 119 21 11 41 11 62 0 0 0 213-119 213-119m-66-227c6 40 9 71 7 93-2 23-5 38-10 47 0 0-7 11-7 11 0 0 36 19 36 19 2-2 4-7 6-14 2-7 5-24 9-52 3-27 2-61-4-101-1-9-5-14-11-15-6-1-12 0-18 3-6 3-9 6-8 9"/>
<glyph glyph-name="location" unicode="&#57371;" d="M256 512c-88 0-160-72-160-160 0-89 80-208 160-352 80 144 160 263 160 352 0 88-71 160-160 160z m0-224c-35 0-64 28-64 64 0 35 29 64 64 64 36 0 64-29 64-64 0-36-28-64-64-64z"/>
<glyph glyph-name="phone" unicode="&#57374;" d="M435 152c-1 6-4 10-9 13l-74 43c-3 2-7 3-10 3-6 0-12-3-16-7l-22-21c-1-1-4-2-5-3 0 0-25 2-71 48-46 46-48 71-48 71 0 1 2 4 3 5l18 19c7 6 8 17 5 26l-41 76c-3 6-9 10-15 10-5 0-9-2-13-5l-50-50c-5-5-9-14-10-20 0-4-9-81 97-186 89-90 159-97 179-97 4 0 6 0 7 0 6 1 15 5 20 10l50 50c4 5 6 10 5 15z"/>
<glyph glyph-name="trashcan" unicode="&#57378;" d="M416 448l-128 0c0 0 0 12 0 16 0 9-7 16-16 16-9 0-16-7-16-16 0-9 0-16 0-16l-128 0c-18 0-32-14-32-32l0-32c0-18 14-32 32-32l0-288c0-18 14-32 32-32l224 0c18 0 32 14 32 32l0 288c18 0 32 14 32 32l0 32c0 18-14 32-32 32z m-32-368c0-9-7-16-16-16l-192 0c-9 0-16 7-16 16l0 272 32 0 0-240c0-9 7-16 16-16 9 0 16 7 16 16l0 240 32 0 0-240c0-9 7-16 16-16 9 0 16 7 16 16l0 240 32 0 0-240c0-9 7-16 16-16 9 0 16 7 16 16l0 240 32 0z m32 312c0-4-4-8-8-8l-272 0c-4 0-8 4-8 8l0 16c0 4 4 8 8 8l272 0c4 0 8-4 8-8z"/>
<glyph glyph-name="draw" unicode="&#57379;" d="M509 135l-170 131-13-215 69 32 38-83 45 21-38 82z m-127 214c-1 7-2 15-4 22-23 93-122 148-219 123-98-24-159-119-136-212 24-92 122-147 220-123 25 7 48 18 68 33l-10 30c-18-15-41-27-66-33-82-21-164 24-183 101-19 76 32 154 114 175 82 20 164-25 183-101 2-7 3-14 3-21-11-8-19-21-19-35 0-23 19-42 42-42 23 0 42 19 42 42 0 21-16 38-35 41z"/>
<glyph glyph-name="cart" unicode="&#57380;" d="M102 77c0 13 6 25 16 36 10 10 22 15 36 15 14 0 26-5 36-15 10-11 15-23 15-36 0-15-5-27-15-37-10-9-22-14-36-14-14 0-26 5-36 14-10 10-16 22-16 37m256 0c0 13 6 25 16 36 10 10 22 15 36 15 14 0 26-5 36-15 10-11 15-23 15-36 0-15-5-27-15-37-10-9-22-14-36-14-14 0-26 5-36 14-10 10-16 22-16 37m-164 121c-13-4-19-8-18-12 1-5 8-7 23-7 0 0 287 0 287 0 0 0 0-39 0-39 0-7-3-10-10-10 0 0-66 0-66 0 0 0-256 0-256 0 0 0-13 0-13 0-7 0-10 3-10 10 0 0 0 39 0 39 0 0-5 24-5 24 0 0-50 232-50 232 0 0-50 0-50 0 0 0 0 41 0 41 0 7 3 10 10 10 0 0 80 0 80 0 7 0 10-3 10-10 0 0 0-44 0-44 0 0 360 0 360 0 0 0 0-140 0-140 0-8-3-12-9-13 0 0-283-81-283-81"/>
<glyph glyph-name="heart-filled" unicode="&#57367;" d="M367 481c-44 0-85-20-111-54-26 34-67 54-111 54-77 0-140-63-140-140 0-36 14-71 39-97l198-199 14-14 14 14 194 195c28 27 43 62 43 101 0 77-63 140-140 140z"/>
<glyph glyph-name="heart-line" unicode="&#57368;" d="M362 452c64 0 115-51 115-115 0-32-13-62-35-82l-186-187-189 190c-20 21-32 49-32 79 0 64 51 115 115 115 48 0 89-29 106-70 17 41 58 70 106 70m5 29c-44 0-85-20-111-54-26 34-67 54-111 54-77 0-140-63-140-140 0-36 14-71 39-97l198-199 14-14 14 14 194 195c28 27 43 62 43 101 0 77-63 140-140 140z"/>
<glyph glyph-name="circle-hide" unicode="&#57375;" d="M256 512c-141 0-256-115-256-256 0-141 115-256 256-256 141 0 256 115 256 256 0 141-115 256-256 256z m-225-256c0 124 101 225 225 225 57 0 109-21 148-56l-315-315c-1-1-1-2-2-3-35 40-56 92-56 149z m225-225c-56 0-108 21-148 55 1 1 2 1 3 2l315 316c34-40 55-92 55-148 0-124-101-225-225-225z"/>
<glyph glyph-name="message" unicode="&#57384;" d="M410 435c14 0 26-5 36-15 10-10 15-22 15-36 0 0 0-179 0-179 0-14-5-26-15-36-10-10-22-15-36-15 0 0-103 0-103 0 0 0 0-77 0-77 0 0-102 77-102 77 0 0-103 0-103 0-13 0-25 5-35 15-11 10-16 22-16 36 0 0 0 179 0 179 0 14 5 26 16 36 10 10 22 15 35 15 0 0 308 0 308 0"/>
<glyph glyph-name="house" unicode="&#57385;" d="M480 249c6-6 8-10 6-14-2-4-6-6-14-6 0 0-43 0-43 0 0 0 0-158 0-158 0-5 0-9 0-11-1-2-2-5-4-7-3-2-7-3-12-3 0 0-105 0-105 0 0 0 0 159 0 159 0 0-104 0-104 0 0 0 0-159 0-159 0 0-99 0-99 0-10 0-16 2-18 5-3 4-4 9-4 16 0 0 0 158 0 158 0 0-43 0-43 0-7 0-12 2-14 6-1 4 0 8 6 14 0 0 205 206 205 206 5 5 12 8 19 8 8 0 14-3 20-8 0 0 204-206 204-206"/>
<glyph glyph-name="car" unicode="&#57386;" d="M397 256l58 0 0-63-58 0z m-340 0l58 0 0-63-58 0z m80 223l238 0c22 0 63-82 65-172l-374 0c0 0 20 144 71 172z m-137-352l512 0 0 127c0 0 0 33-27 33 2 39-43 225-98 225l-258 0c-59 0-102-182-100-223-31-10-29-33-29-33z m0-31l0-67c0-13 10-29 20-29l43 0c13 0 21 16 21 29l0 34 342 0 0-34c0-13 14-29 27-29l32 0c13 0 27 16 27 29l0 67z"/>
<glyph glyph-name="three-squares-stacked" unicode="&#57398;" d="M215 471l82 0 0-82-82 0z m0-164l82 0 0-82-82 0z m0-164l82 0 0-82-82 0z"/>
<glyph glyph-name="double-arrows-expand" unicode="&#57387;" d="M0 512l0 0m0-490l0 148c0 5 2 12 7 14 5 3 10 7 15 7 4 0 11-2 14-7l48-48 112 113c3 2 5 2 7 2 3 0 5 0 8-2l38-38c2-3 2-5 2-8 0-2 0-4-2-7l-110-110 48-48c2-7 4-12 4-16 0-5-2-12-4-17-5-5-10-7-15-7l-150 0c-5 0-12 2-15 7-5 5-7 9-7 17z m261 287c0 2 0 4 2 7l110 110-48 48c-4 5-7 9-7 14 0 5 3 12 7 14 5 3 10 10 17 10l148 0c5 0 12-2 15-7 2-5 7-10 7-15l0-148c0-5-2-12-7-14-5-3-7-7-15-7-7 0-11 2-14 7l-48 48-110-110c-2-3-5-3-7-3-2 0-5 0-7 3l-41 35c-2 3-2 5-2 8z"/>
<glyph glyph-name="circlebulb" unicode="&#57350;" d="M256 512c-141 0-256-115-256-256 0-141 115-256 256-256 141 0 256 115 256 256 0 141-115 256-256 256z m46-429l-92 0 0 67 92 0z m23 148c-10-7-23-24-23-47l0-23-92 0 0 23c0 22-13 39-22 46-1 0-1 1-2 1-27 21-45 56-45 71 0 64 51 115 115 115 64 0 115-51 115-115 0-16-18-50-46-71z"/>
<glyph glyph-name="comment" unicode="&#57396;" d="M416 448l-320 0c-31 0-64-32-64-64l0-192c0-64 64-64 64-64l32 0 0-128 128 128c0 0 129 0 160 0 31 0 64 34 64 64l0 192c0 31-32 64-64 64z"/>
<glyph glyph-name="google-plus" unicode="&#57382;" d="M219 103c0-38-24-67-89-70-39 22-71 54-94 92 12 29 49 51 91 51 12 0 24-2 34-6 28-19 50-31 56-53 1-5 1-9 1-14z m37 409c-74 0-141-31-187-82 18 11 40 17 63 17 34 0 128 0 128 0l-28-30-34 0c24-14 36-42 36-73 0-28-15-51-37-68-22-17-26-24-26-39 0-12 26-30 38-39 41-31 49-51 49-90 0-39-34-78-93-91 29-11 59-17 91-17 141 0 256 115 256 256 0 141-115 256-256 256z m128-192l0-64-32 0 0 64-64 0 0 32 64 0 0 64 32 0 0-64 64 0 0-32z m-201 22c6-45-14-74-49-73-34 1-67 32-73 78-6 45 17 80 52 79 34-1 64-38 70-84z m-73-151c-37 0-69-13-91-32-12 30-19 63-19 97 0 28 5 56 13 81 4-50 39-88 97-88 4 0 8 0 12 1-4-8-7-16-7-25 0-15 8-24 19-34-8 0-15 0-24 0z"/>
<glyph glyph-name="pinterest" unicode="&#57381;" d="M0 512l0 0m256 0c-141 0-256-115-256-256 0-141 115-256 256-256 141 0 256 115 256 256 0 141-115 256-256 256z m25-342c-23 2-33 14-52 25-10-54-22-103-59-129-10 79 16 139 29 202-23 37 2 111 49 92 57-22-49-137 22-151 74-14 105 129 60 176-68 68-195 2-178-94 4-25 28-33 10-66-43 11-56 43-53 88 2 74 65 125 129 131 79 9 155-28 165-104 11-84-36-176-122-170z"/>
<glyph glyph-name="facebook" unicode="&#57376;" d="M0 512l0 0m256 0c141 0 256-115 256-256 0-131-98-238-223-254l0 191 88 0 8 63-96 0 0 33c0 18 14 33 33 33l63 0 0 63-63 0c-54 0-97-43-97-96l0-33-49 0 0-63 47 0 0-191c-125 16-223 123-223 254 0 141 115 256 256 256z"/>
<glyph glyph-name="user" unicode="&#57394;" d="M392 142c70-24 105-45 105-62 0 0 0-54 0-54 0 0-241 0-241 0 0 0-241 0-241 0 0 0 0 54 0 54 0 17 35 38 105 62 32 12 54 24 65 36 12 12 18 28 18 48 0 8-4 16-12 25-7 10-12 22-16 38-1 4-2 7-5 9-2 2-4 3-7 4-2 1-4 4-7 9-2 5-4 12-4 22 0 5 0 10 2 13 2 4 3 6 5 6 0 0 2 2 2 2-3 17-5 32-6 45-2 19 5 38 21 58 15 19 42 29 80 29 38 0 65-10 81-29 16-20 22-39 20-58 0 0-6-45-6-45 6-2 9-10 9-21 0-10-2-17-4-22-3-5-5-8-7-9-3-1-5-2-7-4-3-2-4-5-5-9-3-17-8-29-16-38-8-9-12-17-12-25 0-20 6-36 18-48 12-12 34-24 65-36"/>
<glyph glyph-name="bell" unicode="&#57393;" d="M396 292c0 1 0 2 0 3 0 70-47 128-110 143 0 1 0 2 0 3 0 16-13 30-30 30-17 0-30-14-30-30 0-2 0-3 0-4-44-10-81-43-98-86-8-18-12-38-12-59l0-87 280 0z m14-118l-308 0-42-44 0-15 14-15 126 0c0-32 25-59 56-59 31 0 56 27 56 59l126 0 14 15 0 15z"/>
<glyph glyph-name="circle" unicode="&#57392;" d="M0 256c0 143 113 256 256 256 143 0 256-113 256-256 0-143-113-256-256-256-143 0-256 113-256 256z"/>
<glyph glyph-name="minus" unicode="&#57390;" d="M387 236l-264 0c-12 0-23 8-23 20 0 12 11 20 23 20l264 0c12 0 23-8 23-20 0-12-11-20-23-20z"/>
<glyph glyph-name="plus" unicode="&#57389;" d="M387 276l-111 0 0 111c0 12-8 23-20 23-12 0-20-11-20-23l0-111-111 0c-12 0-23-8-23-20 0-12 11-20 23-20l111 0 0-111c0-12 8-23 20-23 12 0 20 11 20 23l0 111 111 0c12 0 23 8 23 20 0 12-11 20-23 20z"/>
<glyph glyph-name="car-plus" unicode="&#57388;" d="M82 246l41 0 0-41-41 0z m246-41l-21 23 0 56-218-1c0 0 14 87 51 106l105 0 0 21-112 0c-42 0-73-117-72-144-21-6-20-20-20-20l0-82 369 0 0 41z m-287-62l0-43c0-8 7-18 15-18l31 0c9 0 15 10 15 18l0 23 246 0 0-23c0-8 11-18 19-18l23 0c9 0 20 10 20 18l0 43z m246 226l205 0 0-41-205 0z m82 82l41 0 0-205-41 0z"/>
<glyph glyph-name="circle-arrow-down" unicode="&#57399;" d="M256 0c-141 0-256 115-256 256 0 141 115 256 256 256 141 0 256-115 256-256 0-141-115-256-256-256z m0 486c-127 0-230-103-230-230 0-127 103-230 230-230 127 0 230 103 230 230 0 127-103 230-230 230z m56-78l0-133 84 0c5 0 8-2 11-7 3-6 1-11-3-15l-138-158c-5-5-14-5-19 0l-141 158c-4 4-4 9-2 15 2 5 6 7 11 7l85 0 0 133c0 8 5 13 12 13l86 0c8 0 14-6 14-13z m-85-146c0-7-6-12-13-12l-69 0 111-127 111 127-67 0c-8 0-13 5-13 12l0 134-60 0z"/>
<glyph glyph-name="circle-arrow-up" unicode="&#57400;" d="M256 0c-141 0-256 115-256 256 0 141 115 256 256 256 141 0 256-115 256-256 0-141-115-256-256-256z m0 480c-123 0-224-101-224-224 0-123 101-224 224-224 123 0 224 101 224 224 0 123-101 224-224 224z m12-61l139-159c4-5 5-12 3-17-3-5-8-9-14-9l-81 0 0-130c0-9-8-16-15-16l-86 0c-9 0-16 8-16 16l0 130-80 0c-7 0-12 4-14 9-3 5-2 13 2 17l140 159c2 3 7 5 11 5 4 0 8-2 11-5z m-54-153c9 0 15-7 15-16l0-131 54 0 0 131c0 9 8 16 15 16l62 0-104 118-104-118z"/>
<glyph glyph-name="photos" unicode="&#57403;" d="M0 512l0 0m63-127l0-319 449 0 0 319z m416-268l-63 106-72-61-55 92-193-160 0 258 385 0 0-235z m-352 155c0 27 20 47 47 47 27 0 47-20 47-47 0-26-20-47-47-47-27 0-47 21-47 47z m322 177l-449 0 0-320 33 0 0 287 416 0z"/>
<glyph glyph-name="street-view" unicode="&#57404;" d="M317 430c0-34-27-61-61-61-34 0-61 27-61 61 0 34 27 62 61 62 34 0 61-28 61-62z m-20-262l0 27c18 20 31 51 31 75 0 0 0 2 0 2 0 2 0 4 0 7 0 40-33 75-72 75-39 0-72-32-72-73 0-2 0-5 0-7 0 0 0-2 0-2 0-24 13-55 31-75l0-27c-80-4-180-20-180-66 0-53 139-67 221-67 82 0 221 14 221 67 0 43-100 60-180 64z m-41-102c-117 0-186 24-190 34 4 11 57 31 149 35l0-20c0-6 4-11 10-11l62 0c6 0 10 5 10 11l0 20c92-4 145-24 149-35-4-10-73-34-190-34z"/>
<glyph glyph-name="map" unicode="&#57370;" d="M0 416l160 64 0-384-160-64z m352 0l0-384-160 53 0 384z m160 64l0-384-128-51 0 384z"/>
<glyph glyph-name="calendar" unicode="&#57366;" d="M143 348l21 0 0-248-21 0z m207 0l21 0 0-248-21 0z m-104 0l20 0 0-248-20 0z m-197-67l414 0 0-21-414 0z m0-82l414 0 0-21-414 0z m342 221l0 51-61 0 0-51-146 0 0 51-61 0 0-51-84 0 0-328 434 0 0 328z m64-307l-396 0 0 235 396 0z m-105 338l21 0 0-82-21 0z m-207 0l21 0 0-82-21 0z"/>
<glyph glyph-name="eye" unicode="&#57406;" d="M256 399c-168 0-256-123-256-143 0-20 88-143 256-143 168 0 256 123 256 143 0 20-88 143-256 143z m0-254c-63 0-115 50-115 111 0 61 52 111 115 111 63 0 115-50 115-111 0-61-52-111-115-111z m0 111c-10 12 16 55 0 55-31 0-57-24-57-55 0-31 24-55 57-55 31 0 57 24 57 55 0 14-49-8-57 0z"/>
<glyph glyph-name="print" unicode="&#57407;" d="M512 350c0 6-6 10-12 10l-84 0 0 138c0 6-6 12-13 12l-297 0c-6 0-12-6-12-12l0-138-84 0c-6 0-10-4-12-10l0-233c0-6 6-13 12-13l84 0 0 97 322 0 0-97 84 0c6 0 12 7 12 13z m-127-41l-258 0 0 158c0 6 6 12 12 12l238 0c6 0 12-6 12-12z m-258-295c0-6 6-12 12-12l236 0c6 0 12 6 12 12l0 156-260 0z"/>
<glyph glyph-name="trophy" unicode="&#57409;" d="M289 135c0 41 30 64 80 96 61 41 137 91 137 211 0 11-8 21-21 21l-96 0c-12 22-51 49-133 49-82 0-121-27-135-51l-96 0c-11 0-21-8-21-21 2-118 78-168 139-209 50-32 80-55 80-96l0-37c-53-6-90-24-90-49 0-29 55-49 123-49 68 0 123 23 123 49 0 23-39 43-90 49z m78 141c16 33 28 78 30 146l70 0c-8-76-53-113-100-146z m-111 203c76 0 106-30 106-43 0-12-28-43-106-43-76 0-106 31-106 43 0 10 30 43 106 43z m-211-57l70 0c2-68 14-113 30-146-47 33-92 70-100 146z"/>
<glyph glyph-name="compass" unicode="&#57410;" d="M252 512c-141-2-254-117-252-258 2-141 119-256 260-254 141 2 254 119 252 260-2 141-119 254-260 252z m6-479c-123-2-225 96-227 221-2 123 96 225 221 227 123 2 225-96 227-221 2-125-96-225-221-227z m-123 104c0 0 121 17 174 70 51 51 70 174 70 174 0 0-121-16-174-70-53-53-70-174-70-174z m94 148c23 22 64 37 101 47-11-35-25-78-47-101-15-14-39-14-54 0-14 15-14 39 0 54z"/>
<glyph glyph-name="trend" unicode="&#57408;" d="M471 70c16 0 31 14 31 30l0 312c0 16-15 30-31 30l-430 0c-16 0-31-14-31-30l0-312c0-16 15-30 31-30 0 0 430 0 430 0z m4 32l-438 0 0 308 440 0 0-308z m-383 48c-2 0-4 0-6 2-6 4-8 12-4 16l53 80c2 4 6 4 10 6 5 0 9-2 11-6l39-62 61 119c2 4 6 6 12 6 4 0 8-4 11-8l47-115 84 168c4 6 10 9 16 6 6-4 8-10 6-16l-98-188c-2-4-6-6-12-6-5 0-9 4-11 8l-47 114-59-114c-2-4-6-6-10-6-5 0-9 2-11 6l-41 63-41-67c-2-4-6-6-10-6z"/>
<glyph glyph-name="buildings" unicode="&#57383;" d="M0 0l256 0 0 512-256 0z m160 448l64 0 0-64-64 0z m0-128l64 0 0-64-64 0z m0-128l64 0 0-64-64 0z m-128 256l64 0 0-64-64 0z m0-128l64 0 0-64-64 0z m0-128l64 0 0-64-64 0z m256 160l224 0 0-32-224 0z m0-352l64 0 0 128 96 0 0-128 64 0 0 288-224 0z"/>
<glyph glyph-name="zillowlogotext" unicode="&#57430;" d="M0 512l0-512 512 0 0 512z m384-167l-42-4c0 0-4-8-8-20-32-2-81-12-106-21 13 12 93 92 93 92 31-21 63-47 63-47z m-59-49c-1-7-10-29-12-36-79-4-165-33-174-37l10 30c27 12 94 37 176 43z m-57 132c7-4 36-24 47-31-33-1-98-15-125-25 22 17 63 49 78 56z m-114-91c18 8 67 23 114 34 0 0-90-84-115-110l20 57c-16-2-23-3-45-8z m-1-251l-53 0 0 12 32 55c3 4 4 7 4 7 0 0-2 0-7 0l-27 0 4 15 52 0 0-13-33-57c-2-3-3-5-3-5l36 0z m16 0l0 55 17 4 0-59z m8 62c-5 0-10 5-10 10 0 6 5 11 11 11 5 0 10-5 10-11 0-5-5-10-11-10z m25-62l0 87 17 4 0-91z m33 0l0 87 17 4 0-91z m78 7c-4-5-11-9-20-9-18 0-29 13-29 33 0 20 12 33 29 33 9 0 16-3 21-10 5-5 7-12 7-22 0-11-2-19-8-25z m80-7l-15 0-5 21c-2 5-3 11-4 16l-1 6c0-3-1-4-1-8-2-6-4-16-6-22l-3-13-16 0-17 63 17 0 5-24c1-7 3-19 3-19 0 0 2 11 5 22l6 21 15 0 5-21c3-12 5-22 5-22 0 2 2 12 4 20l4 23 17 0z m-100 52c-4 0-7-3-9-7-1-3-2-7-2-14 0-7 1-12 3-15 1-4 5-6 8-6 7 0 10 7 10 22 0 8-1 14-3 16-2 3-4 4-7 4z"/>
<glyph glyph-name="flag" unicode="&#57402;" d="M444 477c-10 6-22 2-30-6-37-37-113-37-148 0-55 57-149 57-207 0-4-6-8-12-8-20l0-422c0-15 12-27 27-27 14 0 26 12 26 27l0 186c37 27 89 25 119-6 56-57 168-57 228 0 4 6 8 12 8 20l0 222c2 12-4 22-15 26z"/>
<glyph glyph-name="pedestrian" unicode="&#57417;" d="M272 428c23-2 43 16 45 39 2 22-16 43-38 45-23 2-43-16-46-39-2-22 15-43 39-45m-36-18c8 6 18 10 30 8 15-2 27-10 33-21l43-84 57-41c4-4 9-10 9-16 0-10-11-18-21-18-4 0-6 2-8 2l-64 43c-2 2-4 4-4 6l-16 33-19-84 76-88c2-3 2-7 4-9l21-106c0-2 0-4 0-6-2-17-15-27-31-27-12 0-22 10-27 23l-18 100-61 68-15-66c0-4-4-10-6-12l-59-99c-6-8-17-14-27-14-16 2-29 14-27 31 0 4 3 8 5 12l55 92 45 201-29-25-16-71c-2-9-10-17-21-17-10 0-18 11-18 21l0 2 18 84c0 4 2 6 7 10z"/>
<glyph glyph-name="star-25" unicode="&#57413;" d="M510 313c-2 4-6 9-10 9l-160 22-72 148c-4 8-18 8-24 0l-72-146-158-22c-4 0-8-5-10-9-2-4 0-10 4-14l115-113-27-157c0-4 2-11 6-13 4-2 11-4 15 0l143 76 143-76c3 0 5-2 7-2 2 0 6 0 8 2 4 2 6 9 6 13l-27 157 115 113c-2 2-2 8-2 12z m-143-110c-5-2-5-8-5-13l25-139-125 66c-2 0-4 2-6 2-2 0-4 0-6-2l-125-66 25 139c0 3 0-4 0-2l45 140-11-6c4 0 9 4 11 8l61 127 61-127c2-4 7-6 11-8l139-21z"/>
<glyph glyph-name="star-50" unicode="&#57414;" d="M510 313c-2 4-6 9-10 9l-160 22-72 148c-4 8-18 8-24 0l-72-146-158-22c-4 0-8-5-10-9-2-4 0-10 4-14l115-113-27-157c0-4 2-11 6-13 4-2 11-4 15 0l143 76 143-76c3 0 5-2 7-2 2 0 6 0 8 2 4 2 6 9 6 13l-27 157 115 113c-2 2-2 8-2 12z m-143-110c-5-2-5-8-5-13l25-139-125 66c-2 0-4 2-6 2l0 336 61-127c2-4 7-6 11-9l139-20z"/>
<glyph glyph-name="star-75" unicode="&#57415;" d="M510 313c-2 4-6 9-10 9l-160 22-72 148c-4 8-18 8-24 0l-72-146-158-22c-4 0-8-5-10-9-2-4 0-10 4-14l115-113-27-157c0-4 2-11 6-13 4-2 11-4 15 0l143 76 143-76c3 0 5-2 7-2 2 0 6 0 8 2 4 2 6 9 6 13l-27 157 115 113c-2 2-2 8-2 12z m-137-106l-37 112 133-18z"/>
<glyph glyph-name="star-0" unicode="&#57411;" d="M406 14c-3 0-5 0-7 2l-143 76-143-76c-4-2-11-2-15 0-4 2-6 9-6 13l27 157-115 113c-4 4-4 8-4 14 0 6 6 9 10 9l160 22 74 148c4 8 18 8 24 0l72-146 160-22c4 0 8-5 10-9 2-4 0-10-4-14l-115-113 27-157c0-4-2-11-6-13-2-4-4-4-6-4z m-150 105c2 0 4 0 6-2l125-66-25 139c0 5 0 9 5 13l100 98-139 21c-4 0-9 4-11 8l-61 127-61-129c-2-4-7-6-11-6l-139-21 100-98c5-2 5-8 5-13l-25-139 125 66c2 2 4 2 6 2z"/>
<glyph glyph-name="star-100" unicode="&#57412;" d="M508 317c-2 5-6 9-10 9l-160 24-72 152c-4 8-18 8-22 0l-70-152-160-24c-4 0-8-4-10-9-2-4 0-8 2-12l117-121-27-168c0-4 2-10 4-12 4-2 9-2 13 0l143 80 143-80c2 0 4-2 7-2 2 0 4 0 6 2 4 2 6 8 4 12l-27 168 117 119c2 4 4 10 2 14z"/>
<glyph glyph-name="arrow-menu-down" unicode="&#57391;" d="M369 313l-113-114-113 114"/>
<glyph glyph-name="pop-up" unicode="&#57344;" d="M371 379l-84 0c-4 0-6-2-8-4 0-4 0-6 2-10l36-37-129-129c-4-4-4-9 0-13 2-2 5-2 7-2 2 0 4 0 4 2l129 129 37-36c2 0 4-3 6-3 2 0 2 0 4 0 4 3 4 5 4 9l0 84c0 6-4 10-8 10z m-15-127c-4 0-8-4-8-8l0-94-196 0 0 151 75 0c4 0 9 4 9 8 0 4-5 8-9 8l-84 0c-4 0-8-4-8-8l0-170c0-4 4-8 8-8l215 0c4 0 9 4 9 8l0 103c-2 6-7 10-11 10z"/>
<glyph glyph-name="lock-filled" unicode="&#57377;" d="M379 297l0 92c0 68-55 123-123 123-68 0-123-55-123-123l0-92-82 0 0-297 410 0 0 297z m-109-160l6-55c0-12-10-16-20-16-10 0-20 2-20 16l6 53 2 0c-13 6-21 17-21 31 0 18 15 35 35 35 21 0 35-15 35-35-2-10-10-23-23-29z m78 160l-184 0 0 92c0 51 41 92 92 92 51 0 92-43 92-92z"/>
<glyph glyph-name="triangle" unicode="&#57419;" d="M18 20c-22 29-22 76 0 105l197 344c23 29 61 29 84 0l197-344c22-29 22-76 0-105"/>
<glyph glyph-name="check-1" unicode="&#57421;" d="M502 440c-15 15-39 15-53 0l-259-288-127 127c-14 14-38 14-53 0-14-15-14-39 0-54l154-153c8-9 16-11 26-11 11 0 19 5 27 11l285 315c14 14 14 39 0 53z"/>
<glyph glyph-name="circle-minus" unicode="&#57347;" d="M256 0c-141 0-256 115-256 256 0 141 115 256 256 256 141 0 256-115 256-256 0-141-115-256-256-256z m0 481c-124 0-225-101-225-225 0-124 101-225 225-225 124 0 225 101 225 225 0 124-101 225-225 225z m129-240l-256 0c-9 0-16 6-16 15 0 8 7 15 16 15l256 0c8 0 15-7 15-15 0-9-7-15-15-15z"/>
<glyph glyph-name="excalamation-mark" unicode="&#57361;" d="M233 152c7-7 13-9 23-9 10 0 16 2 23 9 6 6 8 12 8 22 0 10-2 16-8 23-5 6-13 8-23 8-10 0-18-2-25-8-4-4-6-13-6-23 0-10 2-18 8-22z m56 260l-64 0c0 0-2 0-2 0 0 0 0-2 0-2l10-174c0-3 3-3 3-3l43 0c2 0 2 3 2 3l8 176c2-2 0 0 0 0z"/>
<glyph glyph-name="location-1" unicode="&#57405;" d="M508 266l-242 242c-6 6-14 6-20 0l-242-242c-6-6-6-14 0-20l242-242c2-2 6-4 10-4 4 0 8 2 10 4l242 242c2 2 4 6 4 10 0 4-2 8-4 10z m-213-49l0 43-64 0 0-113-51 0 0 164 115 0 0 45 94-69z"/>
<glyph glyph-name="bulb" unicode="&#57418;" d="M193 106l126 0 0-75-126 0z m157 125c-14-8-31-30-31-63l0-31-126 0 0 31c0 31-17 51-31 61 0 0-2 0-2 2-39 27-62 74-62 97 0 86 70 153 154 153 84 0 154-69 154-153 4-23-21-70-56-97z"/>
<glyph glyph-name="reload" unicode="&#57422;" d="M475 256c0-30-5-58-17-85-12-27-27-51-47-70-19-20-43-35-70-47-27-12-55-17-85-17-33 0-64 6-93 20-30 14-55 34-76 59-1 2-2 4-2 6 0 3 1 4 3 6l39 39c2 2 4 3 7 3 3 0 5-2 7-3 13-19 31-33 51-42 20-10 41-15 64-15 20 0 39 4 57 11 18 8 33 18 46 32 14 13 24 28 32 46 7 18 11 37 11 57 0 20-4 39-11 57-8 18-18 33-32 46-13 14-28 24-46 32-18 7-37 11-57 11-19 0-37-3-54-10-17-7-32-16-45-29l39-39c6-6 7-13 4-20-4-8-9-11-17-11l-128 0c-5 0-9 1-13 5-4 4-5 8-5 13l0 128c0 8 3 13 11 17 7 3 14 2 20-4l37-37c20 19 44 34 70 45 26 10 53 15 81 15 30 0 58-5 85-17 27-12 51-27 70-47 20-19 35-43 47-70 12-27 17-55 17-85z"/>
<glyph glyph-name="txt" unicode="&#57423;" d="M256 512c-141 0-256-115-256-256 0-141 115-256 256-256 141 0 256 115 256 256 0 141-115 256-256 256z m-72-213l-37 0 0-111-28 0 0 111-37 0 0 25 102 0z m103-111l-31 52-31-52-32 0 45 70-41 66 30 0 29-50 29 50 30 0-43-66 45-68-30 0z m143 111l-37 0 0-111-28 0 0 111-37 0 0 25 102 0z"/>
<glyph glyph-name="checklist" unicode="&#57420;" d="M445 254l-25 25c-3 3-9 3-12 0l-52-53-60-60-47 47c-3 3-8 3-12 0l-24-25c-4-4-4-9 0-12l77-77c3-4 8-4 12 0l24 25 119 118c3 3 3 9 0 12z m-266-32l25 24c21 22 58 22 79 0l13-12 57 54 0 160-288 0 0-352 160 0-46 46c-22 22-22 58 0 80z m-18 194l160 0 0-32-160 0z m0-64l160 0 0-32-160 0z m-32-96l-32 0 0 32 32 0z m0 64l-32 0 0 32 32 0z m0 64l-32 0 0 32 32 0z m32-96l32 0 0-32-32 0z"/>
<glyph glyph-name="bicycle" unicode="&#57424;" d="M15 193c0 25 9 47 27 64 18 18 39 27 65 27 18 0 35-4 49-14l25 34-6 12-19-5c0 0-1 0-2 0-1 0-2 0-3 0-4 0-8 2-12 5-3 3-5 7-5 12l0 31c0 5 2 10 5 13 4 3 8 5 12 5 2 0 4 0 5-1l58-15c3-1 6-3 9-6 2-3 4-7 4-11 0-4-2-7-4-11-3-3-6-5-9-6l-14-4 3-7 132 0-2 4c-2 7-5 13-8 17-3 5-6 9-9 11-2 2-5 4-7 5-3 2-5 2-6 3-1 0-3 0-4 0-4 0-8 2-12 5-4 3-6 7-6 13 0 4 2 9 5 12 4 3 8 5 13 5 3 0 7-1 11-2 5-1 10-3 18-7 7-3 14-9 21-18 7-8 13-19 18-32 8-22 15-38 19-49 8 1 15 2 19 2 25 0 47-9 65-27 18-18 27-40 27-65 0-25-9-47-27-65-18-18-40-27-65-27-26 0-47 9-65 27-18 18-27 39-27 65 0 15 4 30 11 43 7 14 17 25 30 33-1 1-2 5-5 11-2 6-4 11-5 14l-84-112-10-5-52 0c-4-22-15-40-32-54-17-15-37-22-59-22-26 0-47 9-65 27-18 18-27 39-27 65z m35 0c0-16 6-29 17-41 11-11 24-16 40-16 12 0 24 4 34 11 11 8 18 18 21 30l-51 0-10 19 34 46c-9 5-19 7-28 7-16 0-29-5-40-16-11-11-17-24-17-40z m83 9l30 0c-1 9-5 17-10 25z m43 52c13-15 21-32 23-52l31 0-36 75z m39 37l37-78 58 78z m133-98c0-16 6-29 17-40 11-12 24-17 40-17 16 0 29 5 40 16 11 12 17 25 17 41 0 15-6 29-17 40-11 11-24 17-40 17l-5 0c3-8 6-16 10-26 4-9 7-16 9-20 2-5 2-7 3-7 1-2 1-5 1-7 0-4-1-8-5-12-3-3-7-5-12-5-4 0-7 1-10 3-3 1-5 4-6 7 0 0-1 3-3 7-2 4-5 11-9 20-3 9-7 18-10 26-14-12-20-26-20-43z"/>
<glyph glyph-name="home-house-streamline" unicode="&#57425;" d="M437 224c-6 0-10-5-10-11l0-192-107 0 0 139-128 0 0-139-107 0 0 203c0 6-4 11-10 11-6 0-11-5-11-11l0-224 149 0 0 139 86 0 0-139 149 0 0 213c0 6-5 11-11 11z m72 18l-253 242-253-242c-4-4-4-10 0-15 4-4 11-4 15 0l238 228 238-228c2-2 5-3 7-3 3 0 6 1 8 3 4 5 4 11 0 15z m-168 185l64 0 0-64c0-6 5-11 11-11 6 0 11 5 11 11l0 85-86 0c-6 0-10-5-10-11 0-6 4-10 10-10z"/>
<glyph glyph-name="pets" unicode="&#57426;" d="M342 39c-6 1-12 1-17 2-9 3-18 5-25 7-9 3-18 4-26 6-7 1-14 3-21 3-5 0-11 0-15-1-10-1-21-4-31-7-9-2-18-4-25-6-7-3-14-3-21-4-6-1-12-1-18-1-14 1-24 6-34 14-14 11-21 25-25 41-1 6-3 14-1 19 1 16 6 29 14 44 6 10 12 18 20 26 4 4 6 6 10 10 9 7 17 15 22 24 7 8 14 17 19 26 6 8 12 17 19 26 6 6 11 14 17 19 7 6 14 10 21 12 6 2 12 4 18 4 9 0 17-2 25-3 12-3 23-9 33-18 6-6 12-13 17-20 7-8 11-17 17-24 6-10 12-19 19-26 6-8 13-14 20-21 11-10 22-22 29-35 7-11 11-21 12-32 3-10 3-18 2-27-3-15-9-29-21-39-8-9-19-15-29-19-5-1-8-1-14-1l-3 0c-5 0-3 0-8 1z m-322 265c0 1 0 1 0 3 2 8 3 14 5 21 4 9 8 15 16 21 7 4 12 6 21 7 8 1 17-1 25-5 6-4 12-7 19-12 13-12 21-29 24-46 2-4 3-10 3-13 0-10-1-19-4-26-3-7-6-12-12-18-6-6-13-11-23-12-9-1-18 0-27 4-7 4-13 8-20 14-7 6-12 13-17 22-5 8-8 17-9 26-1 3-1 5-1 7l0 2c-1 1 0 3 0 5z m357-29c0 12 3 24 7 33 5 10 11 19 18 26 7 8 16 14 26 18 6 3 14 4 20 4 11-1 21-5 28-12 8-6 12-14 14-23 3-7 3-14 3-21 0-12-4-24-9-33-4-9-8-15-15-22-8-9-17-15-27-19-7-3-14-4-21-4-11 1-19 4-27 11-7 7-11 15-14 24-2 7-3 11-3 18z m-143 131c-6 43-38 73-70 68-32-5-52-44-45-86 6-43 38-73 70-68 32 5 52 43 45 86z m154-24c-9-43-43-71-76-63-32 7-50 48-40 91 10 43 44 71 76 64 32-8 50-49 40-92z"/>
<glyph glyph-name="parking" unicode="&#57427;" d="M496 97c0-42-36-77-78-77l-327 0c-43 0-78 35-78 77l0 327c0 43 36 78 78 78l327 0c42 0 78-36 78-78 0 0 0-327 0-327z m-301-27l0 139 49 0c33 0 59 2 77 5 13 3 26 9 39 18 12 9 23 21 31 36 8 16 12 35 12 57 0 29-7 53-21 72-14 18-32 30-53 36-14 4-43 5-89 5l-119 0 0-368z m36 306c27 0 45-1 54-2 12-3 22-8 30-17 8-8 11-20 11-33 0-11-2-20-8-29-6-8-13-14-23-18-10-4-30-5-59-5l-41 0 0 104z"/>
<glyph glyph-name="thumbsup" unicode="&#57397;" d="M125 307c4 4 10 10 6 19-2 4-6 6-12 6-25 0-86-17-86-90l0-125c0-70 55-88 86-88 6 0 12 2 14 8 2 8-2 12-8 16-8 8-23 23-23 45l0 164c0 23 15 37 23 45z m-6-258l0-4z m258 277c-8 2-17 2-23 4 2 2 2 4 4 6 23 31 72 96 25 156-2 4-6 6-12 6-13 0-21-13-43-39-21-27-47-62-78-82l-12-8c-58-41-105-74-105-101l0-176c0-47 174-78 252-78 49 0 96 238 96 265 0 34-59 40-104 47z"/>
<glyph glyph-name="laundry" unicode="&#57428;" d="M216 315c-44-19-64-72-43-116 8-18 23-32 37-40l112 130c-23 32-67 44-106 26z m237 93l0 76c2 14-10 24-23 24l-354 0c-13 0-24-11-24-24l0-456c0-13 11-24 23-24l355 0c13 0 23 11 23 24z m-61 71c18 0 32-14 32-32 2-19-13-32-32-32-18 0-32 13-32 32 0 18 13 32 32 32z m-307-15l116 0 0-36-116 0z m169-359c-72 0-131 59-131 130 0 72 59 130 131 130 71 0 130-58 130-130 1-70-59-130-130-130z"/>
<glyph glyph-name="panorama" unicode="&#57431;" d="M512 295c0-6-2-12-2-21-4-22-23-47-41-59-27-16-57-29-88-35l0 84c12 4 25 10 37 19 6 4 12 10 16 18 4 6-2 14-6 18-10 13-22 21-37 27-22 10-49 16-74 21-38 6-79 6-118 0-33-5-70-13-99-35-6-4-12-10-16-19 0-2-2-4-2-6-2-4 2-10 6-12 10-14 29-23 45-29 19-8 39-12 57-16l0 80 142-113-142-113 0 66c-38 4-75 14-110 29-27 12-62 37-72 67-4 10-4 21-4 29 0 8 0 16 4 24 6 17 23 29 37 37 33 21 74 31 113 39 41 6 84 11 127 8 43-2 84-8 125-20 32-10 71-25 94-51 0 0 0-2 2-2 2-8 8-23 6-35z"/>
<glyph glyph-name="bus" unicode="&#57401;" d="M453 379c-7 59-29 76-29 76-41 32-158 37-168 37 0 0-125-3-168-37 0 0-22-17-29-76l-12-113 0-203 35 0c0-2 0-2 0-4l0-18c0-16 14-31 31-31 18 0 30 15 30 31l0 18c0 2 0 2 0 4l224 0c0-2 0-2 0-4l0-18c0-16 14-31 30-31 17 0 31 15 31 31l0 18c0 2 0 2 0 4l37 0 0 203z m-289 74l184 0c8 0 14-7 14-15 0-8-6-14-14-14l-184 0c-8 0-14 6-14 14 0 8 6 15 14 15z m-53-324c-19 0-29 14-29 31 0 18 14 33 33 33 18 0 32-15 32-33-2-17-18-31-36-31z m149 129l-158 0c0 0-24 0-20 31l10 84c0 0 2 24 31 24l266 0c29 2 31-24 31-24l10-86c4-31-20-31-20-31l-150 0z m139-129c-18 0-32 14-32 33 0 18 14 33 32 33 19 0 33-15 33-33 0-19-14-33-33-33z"/>
<glyph glyph-name="calculator" unicode="&#57416;" d="M80 43c0-25 18-43 43-43l266 0c25 0 43 18 43 43l0 426c0 25-18 43-43 43l-266 0c-25 0-43-18-43-43z m78 416l198 0c15 0 25-10 25-25l0-69c0-15-10-25-25-25l-198 0c-15 0-25 10-25 25l0 69c0 15 10 25 25 25z m-25-187c0 17 12 27 27 27 14 0 26-12 26-27 0-14-12-26-26-26-15 0-27 12-27 26z m96 0c0 17 13 27 27 27 14 0 27-12 27-27 0-14-13-26-27-26-14 0-27 12-27 26z m97 0c0 17 12 27 26 27 15 0 27-12 27-27 0-14-12-26-27-26-14 0-26 12-26 26z m-193-96c0 17 12 27 27 27 14 0 26-13 26-27 0-14-12-26-26-26-15 0-27 10-27 26z m96 0c0 17 13 27 27 27 14 0 27-13 27-27 0-14-13-26-27-26-14 0-27 10-27 26z m97 0c0 17 12 27 26 27 15 0 27-13 27-27 0-14-12-26-27-26-14 0-26 10-26 26z m-193-96c0 16 12 26 27 26 14 0 26-12 26-26 0-14-12-27-26-27-15 0-27 13-27 27z m96 0c0 16 13 26 27 26 14 0 27-12 27-26 0-14-13-27-27-27-14 0-27 13-27 27z m97 0c0 16 12 26 26 26 15 0 27-12 27-26 0-14-12-27-27-27-14 0-26 13-26 27z"/>
<glyph glyph-name="layers" unicode="&#57432;" d="M0 377l256 110 256-110-256-111z m0-121l76 31 180-78 182 78 72-31-254-111z m0-123l78 33 178-78 182 78 74-33-254-108z"/>
<glyph glyph-name="globe-world" unicode="&#57434;" d="M256 475c40 0 77-9 110-29 34-20 60-46 80-80 20-33 29-70 29-110 0-40-9-77-29-110-20-34-46-60-80-80-33-20-70-29-110-29-40 0-77 9-110 29-34 20-60 46-80 80-20 33-29 70-29 110 0 40 9 77 29 110 20 34 46 60 80 80 33 20 70 29 110 29z m78-148c0-1-1-2-2-3-2-2-3-3-4-3 0 0 1 1 1 2 0 1 1 2 1 3 1 1 1 2 1 2 2 1 4 2 7 4 2 1 7 2 15 3 6 2 11 1 14-3 0 1 1 2 3 4 2 2 3 3 4 3 1 1 2 1 4 2 3 0 4 1 5 2l0 6c-2 0-4 1-5 2-1 2-2 4-2 6 0 0 0-1-1-2 0 1-1 2-2 2-1 0-2 0-3 0-1-1-2-1-3 0-1 0-3 1-4 2-1 1-2 2-2 4-1 3-1 4-1 5-1 1-2 2-3 3-1 1-2 2-3 3 0 0 0 1 0 1-1 1-1 2-1 2-1 1-1 1-1 2-1 0-1 0-2 0-1 0-1 0-2-1-1-1-1-2-2-3-1-1-1-1-1-1-1 0-2 0-2 0-1 0-1 0-1 0-1 0-1-1-2-1 0 0-1-1-1-1-1 0-2-1-3-1-1 0-1 0-2 0 3 1 3 2 0 3-2 0-4 1-5 1 2 0 3 1 2 3 0 2-1 3-2 4l1 0c0 1-1 2-2 2-2 1-3 2-5 3-2 1-3 1-4 2-1 1-5 1-10 2-5 1-8 1-9 0-1-1-1-2-1-3 0 0 0-2 1-4 1-1 1-3 1-3 0-1 0-3-2-4-1-1-2-2-2-3 0-2 2-3 4-5 3-1 4-3 3-6 0-1-2-3-4-4-3-2-4-3-5-4-1-1-1-3 0-5 0-2 1-4 3-5 0 0 0-1 0-1 0 0 0-1-1-1 0-1-1-1-1-1-1-1-2-1-2-1l-1-1c-2-1-4 0-6 2-2 2-3 4-4 7-1 5-3 8-4 9-5 1-8 1-9-1-1 3-5 5-11 8-5 2-11 2-17 1 1 0 1 2 0 4-1 3-3 4-5 4 0 1 1 3 1 5 0 2 0 3 0 4 1 2 2 4 3 6 1 0 1 1 2 3 2 1 2 2 3 3 1 2 1 2 0 2 7-1 12 0 15 3 1 1 2 3 3 5 1 2 2 4 3 5 2 1 3 2 4 2 1-1 2-1 4-2 2-1 3-1 4-1 3-1 4 0 5 3 0 2-1 4-3 5 3 0 3 2 1 5-1 2-1 2-2 3-2 1-5 0-8-2-1 0-1-1 1-2 0 0-1-1-3-3-1-2-3-4-5-5-1-1-3-1-4 2 0 0-1 1-2 3-1 3-1 4-2 4-2 0-3-1-5-4 1 2 0 3-3 4-3 2-5 2-7 3 4 2 3 4-2 7-2 1-4 2-6 2-3 0-5 0-6-1-1-2-1-3-1-4 0-1 0-1 1-2 1-1 2-1 3-2 1 0 2 0 3-1 2 0 2 0 3-1 3-1 3-3 2-4 0 0-1 0-2-1-2 0-3 0-4-1-1 0-1-1-1-1-1-1-1-2 0-4 0-2 0-3-1-4-1 1-2 3-2 5-1 2-2 4-2 5 1-2-1-3-8-2l-2 0c-1 0-3 0-5 0-2-1-4-1-6-1-1 1-3 1-4 3 0 1 0 3 0 5 0 1 1 1 1 1 0 1-1 1-3 3-1 1-2 2-3 2-8-3-17-7-26-12 1 0 2 0 3 1 1 0 2 1 4 2 1 0 2 1 3 1 6 3 10 3 12 2l1 2c3-3 5-6 6-8-2 1-4 1-9 1-4-1-6-3-6-4 1-2 2-4 1-5 0 1-2 2-3 3-1 1-3 2-4 3-1 1-3 1-4 2-3 0-6-1-7-1-28-15-50-36-67-63 1-1 3-2 4-2 0-1 1-1 1-3 0-2 0-3 1-3 0-1 1 0 3 1 2-2 2-4 1-6 0 0 4-2 12-7 4-4 6-6 6-6 1-3 0-4-2-6-1 1-1 2-3 3-2 1-2 2-3 1 0-1 0-3 1-5 0-3 1-4 3-4-2 0-3-1-3-4-1-3-1-7-1-10 0-4 0-6 0-7 0-3 0-6 2-10 2-5 4-6 6-6-2 0 0-5 6-12 1-2 2-3 2-3 1 0 2-1 4-2 1-1 3-2 4-3 1-1 2-2 3-3 0-1 1-3 3-6 1-3 2-6 4-7-1-1 0-3 2-6 2-2 3-4 3-6-1-1-1-1-1-1 0-1 2-2 4-4 3-1 4-2 5-3 0-1 0-2 0-3 0-2 1-3 1-3 1-1 1-1 2-1 1 4-1 10-6 18-3 4-5 7-5 8-1 1-1 2-2 4 0 2-1 4-1 5 0 0 1-1 2-1 0 0 1 0 2-1 1 0 2-1 2-1 1 0 1-1 1-1-1-1-1-3 0-5 1-2 2-4 4-5 1-2 3-3 5-6 1-2 3-3 3-3 1-1 2-3 4-6 2-2 2-4 0-4 2 0 4-1 6-3 2-1 3-3 5-5 1-2 1-4 2-8 0-3 1-5 1-7 1-1 1-2 3-3 1-2 2-3 3-3l5-2c0 0 1-1 4-2 1-1 2-2 5-3 2-2 4-3 6-4 2 0 3-1 5-1 1 0 2 0 4 1 1 0 3 1 4 1 2 0 5-1 8-4 3-4 5-6 6-6 7-4 12-5 16-4-1 0-1 0 0-2 0-1 1-2 2-4 1-2 2-3 3-4 0-1 1-2 1-3 1-1 3-2 5-4 3-2 4-3 5-4 2 0 2 1 2 2 0-1 1-3 2-5 2-3 4-4 6-3 2 0 4 3 4 9-6-3-11-1-14 5 0 0-1 1-1 2-1 0-1 1-1 2-1 1-1 2-1 2 0 1 0 2 0 3 0 0 1 0 1 0 2 0 3 1 3 1 0 1 0 2 0 4-1 2-1 3-1 4-1 1-2 3-4 5-1 3-3 4-3 5-1-2-2-3-5-3-2 1-3 1-4 3 0 0 0-1-1-2 0 0 0-1 0-1-2 0-4 0-4 0 0 0 0 2 0 5 1 3 1 5 1 6 1 1 1 2 2 4 1 1 2 3 2 4 1 1 1 2 1 3 0 2 0 2-1 3-1 1-3 1-5 1-4 0-6-2-7-6-1 0-1-1-1-3-1-1-1-2-2-3 0-1-1-2-2-2-2-1-4-1-7-1-3 0-6 1-7 2-2 1-5 4-6 8-2 4-3 8-3 11 0 1 0 4 1 7 0 3 0 6 0 7 1 2 0 4-1 7 0 1 1 2 2 3 2 1 3 2 3 3 1 0 1 0 2 0 0 1 0 1 1 0 0 0 1 0 1 1 0 0 1 1 1 2 0 0-1 0-1 0-1 1-1 1-1 1 1 0 4 0 8 1 4 1 6 0 8-1 2-2 5-2 6 1 0 0 0 1-1 3 0 1 0 2 0 3 1-5 4-6 8-2 1-1 2-1 5-2 2 0 4 0 5-1 0 0 1-1 2-2 0 0 1-1 1-1 1 0 1 0 2 0 0 1 1 1 2 2 2-3 3-5 4-7 2-7 3-12 5-12 1-1 2-1 3-1 1 0 1 1 1 3 1 1 1 3 0 4 0 1 0 2 0 3l0 8-1 2c-2 1-4 2-5 4-1 1 0 3 1 5 1 2 2 3 4 5 0 0 1 1 2 1 1 1 3 1 5 2 1 1 2 2 3 2 4 4 6 7 4 10 2 0 3 1 4 3-1 0-1 0-2 1-1 0-1 1-2 1-1 1-1 1-1 1 1 1 2 2 0 4 1 1 2 2 2 3 1 2 2 3 3 3 1-2 3-2 6 0 1 1 1 3 0 4 1 2 3 3 6 3 3 1 4 2 5 3 1 0 2 0 2 1 0 0 1 1 1 3 0 2 0 3 0 3 1 1 3 2 5 3 2 1 3 1 3 1l5 4c1 0 1 1 0 1 4-1 7 0 9 3 2 2 1 4-2 6 1 1 1 2 0 2-2 1-3 1-5 2 1 0 2 0 4 0 1 0 2 0 3 0 2 2 2 4-2 5-4 1-8 0-13-3z m-46-251c39 7 72 25 100 54-1 1-2 1-4 1-1 1-3 1-3 1-4 2-6 2-7 3 0 1 0 2-1 3 0 1-1 2-2 3-1 0-2 1-4 2-1 1-2 2-3 2 0 1-1 1-2 2-1 1-1 1-2 1 0 1-1 1-2 2-1 0-2 0-2 0-1 0-2 0-3 0l-1 0c-1 0-1-1-2-1 0 0-1-1-1-1-1 0-1 0-1-1-4 3-8 5-11 6-1 0-2 1-3 1-1 1-2 2-3 2-1 1-2 1-3 1-1 0-2-1-3-2-1-1-1-3-2-4 0-2 0-4 0-4-1 1-1 2 0 5 1 2 1 4 0 5 0 1-1 2-3 1-1 0-2 0-3-1-1 0-2-1-3-2-2-1-2-2-3-2 0 0-1-1-2-2-2-1-2-1-3-2 0-1-1-2-1-3-1-2-1-3-2-3 0 0-1 1-3 1-2 1-3 1-3 2 1-2 1-5 1-10 1-5 1-8 2-11 1-6 0-10-4-14-5-4-8-8-8-11-1-4 0-7 3-7 0-2 0-4-2-6-1-3-2-5-2-6 0-2 0-3 1-5z"/>
<glyph glyph-name="instagram" unicode="&#57437;" d="M389 256c0 9-1 17-3 26 0 0 90 0 90 0 0 0 0-177 0-177 0-19-6-35-20-49-13-13-29-20-48-20 0 0-304 0-304 0-19 0-35 7-48 20-14 14-20 30-20 49 0 0 0 177 0 177 0 0 89 0 89 0-1-11-2-20-2-26 0-36 13-67 39-94 26-26 57-39 94-39 36 0 67 13 94 39 26 27 39 58 39 94m19 220c19 0 35-6 48-20 14-13 20-29 20-48 0 0 0-75 0-75 0 0-111 0-111 0-27 37-63 56-109 56-47 0-83-19-109-56 0 0-111 0-111 0 0 0 0 75 0 75 0 19 6 35 20 48 13 14 29 20 48 20 0 0 304 0 304 0m32-85c0 0 0 37 0 37 0 8-4 12-12 12 0 0-37 0-37 0-8 0-12-4-12-12 0 0 0-37 0-37 0-3 1-5 3-8 3-3 6-4 9-4 0 0 37 0 37 0 8 0 12 4 12 12m-102-135c0-23-8-42-24-58-16-16-35-24-58-24-23 0-42 8-58 24-16 16-24 35-24 58 0 23 8 43 24 58 16 16 35 24 58 24 23 0 42-8 58-24 16-15 24-35 24-58"/>
<glyph glyph-name="present-gift" unicode="&#57438;" d="M302 125l0 204-92 0 0-204c0-5 2-9 5-11 4-3 8-4 14-4l54 0c6 0 10 1 14 4 3 2 5 6 5 11z m-131 241l56 0-36 46c-5 6-11 9-20 9-7 0-14-3-19-8-5-6-8-12-8-20 0-7 3-14 8-19 5-6 12-8 19-8z m197 27c0 8-3 14-8 20-5 5-12 8-19 8-9 0-15-3-20-9l-36-46 56 0c7 0 14 2 19 8 5 5 8 12 8 19z m107-73l0-91c0-3 0-5-2-7-2-2-4-3-7-3l-27 0 0-118c0-8-3-15-8-20-5-5-12-8-20-8l-310 0c-8 0-15 3-20 8-5 5-8 12-8 20l0 118-27 0c-3 0-5 1-7 3-2 2-2 4-2 7l0 91c0 3 0 5 2 7 2 1 4 2 7 2l125 0c-17 0-32 6-45 19-12 12-19 27-19 45 0 18 7 33 19 45 13 13 28 19 45 19 21 0 37-7 48-22l37-47 37 47c11 15 27 22 48 22 17 0 32-6 45-19 12-12 19-27 19-45 0-18-7-33-19-45-13-13-28-19-45-19l125 0c3 0 5-1 7-2 2-2 2-4 2-7z"/>
<glyph glyph-name="repeat-redo" unicode="&#57439;" d="M475 439l0-128c0-5-1-9-5-13-4-4-8-5-13-5l-128 0c-8 0-13 3-17 11-3 7-2 14 4 20l40 39c-28 26-62 39-100 39-20 0-39-4-57-11-18-8-33-18-46-32-14-13-24-28-32-46-7-18-11-37-11-57 0-20 4-39 11-57 8-18 18-33 32-46 13-14 28-24 46-32 18-7 37-11 57-11 23 0 44 5 64 15 20 9 38 23 51 42 2 1 4 3 7 3 3 0 5-1 7-3l39-39c2-2 3-3 3-6 0-2-1-4-2-6-21-25-46-45-76-59-29-14-60-20-93-20-30 0-58 5-85 17-27 12-51 27-70 47-20 19-35 43-47 70-12 27-17 55-17 85 0 30 5 58 17 85 12 27 27 51 47 70 19 20 43 35 70 47 27 12 55 17 85 17 28 0 55-5 81-15 26-11 50-26 70-45l37 37c6 6 12 7 20 4 8-4 11-9 11-17z"/>
<glyph glyph-name="cog" unicode="&#57440;" d="M512 209l0 94-74 12c-2 9-6 19-10 27l43 61-68 68-59-43c-8 4-16 8-27 10l-12 74-96 0-12-74c-11-2-19-6-27-10l-61 43-68-68 43-61c-4-8-8-16-10-27l-74-12 0-96 74-12c2-9 6-19 10-27l-43-62 68-67 61 43c8-4 16-8 27-10l12-74 96 0 12 74c9 2 19 6 27 10l62-43 67 67-43 62c4 8 8 16 10 27z m-256-16c-35 0-63 28-63 63 0 35 28 63 63 63 35 0 63-28 63-63 0-35-28-63-63-63z"/>
<glyph glyph-name="savesearches" unicode="&#57436;" d="M87 136l42 0 0-43-42 0z m145 172l-73 0 0-42 116 0z m-145-87l42 0 0-43-42 0z m242-9l-10 9-160 0 0-43 230 0 0 43-49 0z m-242 96l42 0 0-42-42 0z m72-172l230 0 0-43-230 0z m222 274c-14 0-28-7-36-18l-15-19-14 19c-9 11-22 18-36 18-26 0-48-21-48-48 0-13 5-24 13-32l85-85 84 84c10 9 15 20 15 33-1 27-23 48-48 48z"/>
<glyph glyph-name="twitter" unicode="&#57395;" d="M256 512c-141 0-256-115-256-256 0-141 115-256 256-256 141 0 256 115 256 256 0 141-115 256-256 256z m147-181c0-3 0-6 0-9 0-101-76-216-216-216-42 0-82 12-116 34 6-1 12-1 18-1 36 0 68 12 94 32-33 1-61 23-71 53 5-1 10-1 15-1 7 0 13 0 20 2-35 7-61 38-61 75 0 0 0 0 0 1 10-6 22-9 34-10-20 14-34 37-34 63 0 14 4 27 11 38 37-46 93-76 156-79-1 6-2 11-2 17 0 42 34 76 76 76 22 0 42-9 56-24 17 4 33 10 48 19-6-18-18-33-34-42 16 2 30 6 44 12-10-15-23-29-38-40z"/>
<glyph glyph-name="mail" unicode="&#57372;" d="M440 409l-368 0c-7 0-13-6-13-13l0-27c0-1 1-2 2-3l194-110c0-1 1-1 1-1 1 0 2 0 2 1l188 110c1 1 3 2 5 3 1 1 2 1 2 3l0 24c0 7-6 13-13 13z m11-80c-1 1-2 1-3 0l-106-62c-1 0-1-1-2-2 0-1 1-2 1-3l106-115c1 0 2-1 3-1 0 0 1 1 1 1 1 0 2 1 2 3l0 177c0 1 0 2-2 2z m-140-83c-1 1-2 1-4 1l-42-25c-5-3-12-3-17-1l-37 22c-1 1-3 0-4-1l-142-131c-1-1-1-2-1-3 0-1 1-2 1-3 3-1 5-2 7-2l364 0c2 0 3 1 3 2 1 2 1 3 0 4z m-135 12c1 1 1 2 1 3 0 1-1 2-2 2l-111 64c-1 1-2 0-4 0-1-1-1-2-1-3l0-167c0-1 1-2 2-3 0 0 1 0 1 0 1 0 2 0 2 1z"/>
<glyph glyph-name="linkedin" unicode="&#57441;" d="M256 502c68 0 126-24 174-72 48-48 72-106 72-174 0-68-24-125-72-174-48-48-106-72-174-72-68 0-125 24-174 72-48 49-72 106-72 174 0 68 24 126 72 174 49 48 106 72 174 72m-60-347c0 0 0 159 0 159 0 0-50 0-50 0 0 0 0-159 0-159 0 0 50 0 50 0m-25 180c18 0 27 8 27 24 0 17-9 25-27 25-7 0-14-2-19-7-5-5-8-11-8-18 0-16 9-24 27-24m207-180c0 0 0 94 0 94 0 22-5 40-16 52-11 11-24 17-41 17-23 0-39-8-50-25 0 0-1 0-1 0 0 0-3 21-3 21 0 0-43 0-43 0 1-9 1-26 1-51 0 0 0-108 0-108 0 0 50 0 50 0 0 0 0 92 0 92 0 6 1 10 3 12 4 13 12 20 25 20 16 0 25-12 25-35 0 0 0-89 0-89 0 0 50 0 50 0"/>
<glyph glyph-name="pdf" unicode="&#57442;" d="M421 217c-6 6-23 10-45 10-17 0-35-2-53-4-9 4-19 10-25 17-18 18-35 43-45 69 0 2 2 4 2 6 0 0 10 62 8 82 0 2 0 4-2 6l0 3c-2 6-8 14-18 14l-6 0c-11 0-19-6-21-12-6-25 0-62 12-107l-4-8c-8-21-20-43-28-62l-2-2c-11-20-21-36-29-51l-8-4c0 0-17-8-19-10-28-19-49-37-53-53-2-5 0-13 4-15l8-4c4-2 8-2 13-2 20 0 45 27 79 86 39 12 84 23 123 29 29-17 66-29 88-29 4 0 9 0 11 2 4 2 8 4 10 6 4 6 6 17 4 25 0 2-2 6-4 8z m-316-113c5 11 19 31 41 50 2 2 5 4 9 8-23-37-39-51-50-58z m134 308c6 0 10-17 10-33 0-17-4-27-8-35-2 12-4 31-4 43 0 0 0 25 2 25z m-39-219c4 8 10 16 14 26 12 23 20 41 27 55 12-20 26-38 43-53 2-2 4-4 6-6-35-4-66-12-90-22z m215 2c-2-2-8-2-13-2-12 0-26 6-49 14 8 0 17 0 23 0 12 0 16 0 28-2 13-2 13-8 11-10z m43 202c-11 15-27 33-43 49-17 19-35 33-49 46-27 18-39 20-45 20l-248 0c-23 0-41-18-41-41l0-430c0-23 18-41 41-41l368 0c23 0 41 18 41 41l0 311c-2 6-4 19-24 45z m-66 27c15-14 27-29 37-41l-78 0 0 78c13-8 27-21 41-37z m55-383c0-4-4-8-8-8l-366 0c-4 0-8 4-8 8l0 430c0 4 4 8 8 8 0 0 248 0 248 0l0-110c0-9 6-17 16-17l113 0 0-311z"/>
<glyph glyph-name="save" unicode="&#57443;" d="M289 401l-66 64-223 0 0-416 512 0 0 352z m-33-305l-113 113 80 0 0 127 64 0 0-127 82 0z"/>
<glyph glyph-name="leaf" unicode="&#57446;" d="M158 471c90-70 86-135 30-254-14 16-83 78-54 166 25 73 24 88 24 88z m47-269c0 0 142 86 265-17 0 0-122-62-186-21-64 42-79 38-79 38z m28 54c-13-19-85-95-191-194l6-21c0 0 123 146 190 205 9 1 28 3 67 7 93 8 104 90 133 149-158 4-168-35-205-146z"/>
<glyph glyph-name="arrow-up" unicode="&#57447;" d="M479 235c0-10-4-19-11-26l-21-22c-8-7-16-10-26-10-11 0-19 3-26 10l-84 84 0-201c0-10-4-18-11-24-7-6-16-9-26-9l-36 0c-10 0-19 3-26 9-7 6-11 14-11 24l0 201-84-84c-7-7-15-10-26-10-10 0-18 3-25 10l-22 22c-7 7-11 16-11 26 0 10 4 18 11 26l186 186c7 7 16 10 26 10 10 0 19-3 26-10l186-186c7-8 11-17 11-26z"/>
<glyph glyph-name="arrow-down" unicode="&#57448;" d="M479 274c0-10-4-18-11-25l-186-187c-7-7-16-10-26-10-10 0-19 3-26 10l-186 187c-7 6-11 15-11 25 0 10 4 19 11 26l21 22c8 7 17 10 26 10 11 0 19-3 26-10l84-84 0 201c0 10 4 18 11 26 7 7 16 10 26 10l36 0c10 0 19-3 26-10 7-8 11-16 11-26l0-201 84 84c7 7 15 10 26 10 9 0 18-3 26-10l21-22c7-7 11-16 11-26z"/>
<glyph glyph-name="arrow-down-1" unicode="&#57449;" d="M113 252l133-187c2-3 6-5 10-5 5 0 9 2 11 5l132 187c3 4 4 9 1 13-2 4-6 7-11 7l-62 0 0 167c0 8-6 13-13 13l-116 0c-7 0-13-5-13-13l0-167-62 0c-5 0-9-3-11-7-3-4-2-10 1-13z"/>
<glyph glyph-name="arrow-up-1" unicode="&#57450;" d="M399 260l-133 187c-2 3-6 5-10 5-5 0-9-2-11-5l-132-187c-3-4-4-9-1-13 2-4 6-7 11-7l62 0 0-167c0-8 6-13 13-13l116 0c7 0 13 5 13 13l0 167 62 0c5 0 9 3 11 7 3 4 2 10-1 13z"/>
<glyph glyph-name="orangetriangleexclamation" unicode="&#57362;" d="M234 90c5-6 13-8 23-8 10 0 17 2 23 8 5 5 8 13 8 23 0 9-3 17-8 22-5 5-13 8-23 8-10 0-18-3-24-8-5-5-8-12-8-22 0-10 3-18 9-23z m54 258l-62 0 9-174 44 0z m10 122l197-345c23-29 23-76 0-105l-478 0c-23 29-23 76 0 105l197 345c23 29 61 29 84 0z"/>
<glyph glyph-name="more" unicode="&#57452;" d="M449 319c-35 0-64-28-64-63 0-35 29-63 64-63 34 0 63 28 63 63 0 35-29 63-63 63z m0-106c-23 0-43 18-43 43 0 25 18 43 43 43 24 0 43-18 43-43 0-25-21-43-43-43z m-193 106c-35 0-63-28-63-63 0-35 28-63 63-63 35 0 63 28 63 63 0 35-28 63-63 63z m0-106c-23 0-43 18-43 43 0 25 18 43 43 43 25 0 43-18 43-43 0-25-20-43-43-43z m-193 106c-34 0-63-28-63-63 0-35 29-63 63-63 35 0 64 28 64 63 0 35-29 63-64 63z m0-106c-22 0-43 20-43 43 0 23 19 43 43 43 25 0 43-18 43-43 0-25-18-43-43-43z"/>
<glyph glyph-name="zsg-icon-edit" unicode="&#57429;" d="M321 409l-266-265-1 0-42-131 131 43 267 265z m-205-279l-15 14 220 219 15-14z m294 367l-59-58 89-88 59 58-89 88"/>
<glyph glyph-name="globe" unicode="&#57433;" d="M256 502c-135 0-246-111-246-246 0-135 111-246 246-246 16 0 33 2 49 4-6 2-6 27 0 39 6 15 29 51 8 64-20 12-16 18-28 33-13 14-9 16-9 20-2 12 13 31 15 33 2 2 0 8 0 12 0 4-10 8-12 8-3 0-5-4-7-4-2 0-18 8-20 12-2 5-4 9-8 13-4 4-4 0-13 4-8 4-28 10-45 16-16 6-18 17-18 23 0 6-10 16-14 22-4 6-7 17-7 15 0-2 9-27 7-29-2-2-7 6-11 12-4 6 4 2-10 33-14 31 4 45 6 61 2 17 13-6 6 5-6 10 0 30-4 38-4 9-37-8-37-8 0 8 25 21 41 33 17 12 27 2 41-2 15-4 15-2 11 2-4 4 2 6 12 4 10-2 14-14 29-12 14 2 2-4 4-8 2-4-2-4-13-11-10-6 0-8 19-20 18-14 12 8 10 18-2 11 14 2 14 2 13-8 11 0 19-4 8-4 31-22 31-22-29-17-11-17-7-21 4-4-10-10-10-10-6 6-6 0-10-2-4-2 0-8 0-8-21-4-16-25-14-29 2-4-13-12-17-20-4-9 8-23 2-25-6-2-12 23-45 14-10-2-33-14-20-39 12-24 32 7 39 5 6-2-2-19 0-19 2 0 18 0 20-20 2-21 27-19 33-19 6 0 24 15 26 17 3 2 13 10 37-4 25-15 35-13 43-17 9-4 2-16 11-20 8-4 36 2 45-11 8-12-31-73-43-79-13-7-19-23-29-33-10-10-29-23-45-31-14-8-16-22-23-29 105 25 187 123 187 240 0 135-111 246-246 246z m57-232c-4 0-10-8-26 2-17 11-29 9-31 11 0 0-2 4 6 4 14 2 35-15 39-15 4 0 6 4 14 2 9-2 2-2-2-4z m-80 207c-2 2 3 2 3 6 2 2 0 4 2 4 4 5 20 9 18-2-2-10-20-10-23-8z m43-31c-6 0-20 3-18 5 10 10-4 12-12 14-8 2-13 6-8 6 4 0 22 0 24-2 2-2 19-8 19-12 0-4 2-11-5-11z m52 3c-4-5-29 14-33 18-21 16-31 12-35 14-4 2-4 6 4 11 8 4 25-3 35-5 10-2 23-10 23-18 0-8 12-16 6-20z"/>
<glyph glyph-name="z-hamburger-menu" unicode="&#57454;" d="M0 354l73 0 0-25-73 0z m0-86l73 0 0-24-73 0z m0-85l73 0 0-25-73 0z m98 280l0-414 414 0 0 414z m227-89c9-5 42-27 53-34-37-1-109-17-139-27 26 19 71 54 86 61z m-125-101c19 9 74 26 127 38 0 0-101-94-130-122l24 63c-19-2-26-3-52-8z m177-85c-89-5-186-38-195-42l12 33c30 14 105 42 196 48-1-6-11-32-13-39z m31 90c0 0-4-9-8-22-36-2-92-13-118-23 13 13 103 102 103 102 34-23 71-52 71-52z"/>
<glyph glyph-name="whatsapp" unicode="&#57453;" d="M256 510c-141 0-255-114-255-255 0-141 114-255 255-255 141 0 255 114 255 255 0 141-114 255-255 255z m0-414c-27 0-53 6-78 20l-85-22 22 83c-14 25-22 54-22 82 0 90 73 161 161 161 43 0 84-16 114-47 31-30 47-71 47-114 4-92-69-163-159-163z m96 257c-25 24-59 39-96 39-73 0-135-62-135-135 0-24 6-51 21-71l4-4-14-49 51 12 4-2c20-12 45-19 69-19 73 0 135 62 135 135 0 35-15 67-39 94z m-16-153c-5-10-21-18-27-18-6-2-16-2-24 2-7 2-15 4-23 8-41 18-67 59-69 61-2 2-17 22-17 41 0 20 11 30 15 34 4 4 8 4 10 4 2 0 6 0 8 0 2 0 6 0 8-6 4-8 12-28 12-30 0-2 3-4 0-6-2-2-2-4-4-6-2-3-4-7-6-7-2-2-4-4-2-8 2-4 10-16 23-28 16-15 28-19 32-21 4-2 6-2 8 0 3 2 11 13 13 17 2 4 6 4 8 2 2-2 24-11 28-13 5-2 7-2 9-4 2-6 2-14-2-22z"/>
<glyph glyph-name="ac" unicode="&#57373;" d="M276 463l-42 0c-128 0-231-96-231-212 0-117 103-212 231-212l42 0c127 0 231 95 231 212 0 116-104 212-231 212z m-59-319l-17 53-76 0-16-53-41 0 74 233 41 0 76-233z m187 14c-14-12-31-18-50-18-25 0-45 10-61 29-18 22-26 52-26 89 0 40 8 71 26 93 16 20 37 30 63 30 21 0 39-8 54-22 10-11 18-26 22-46l-38-11c-2 12-7 22-14 28-8 7-16 11-26 11-14 0-26-7-34-19-9-12-14-32-14-61 0-29 5-50 13-62 9-12 20-19 34-19 10 0 19 4 26 12 8 8 13 21 16 38l38-15c-6-26-16-45-29-57z m-269 78l52 0-26 86z"/>
<glyph glyph-name="beds" unicode="&#57444;" d="M259 296c-84 0-152-29-156-77l312 0c-4 48-72 77-156 77z m158-89l-316 0 0-104 42 0 0 41 230 0 0-41 44 0z m-286 202l0-131 26 13c2 43 19 68 106 65 70-2 97-22 99-65l24-12 0 128"/>
<glyph glyph-name="blackcirclequestion" unicode="&#57365;" d="M220 131c5-6 13-8 23-8 9 0 17 2 23 8 5 5 8 13 8 23 0 9-3 17-8 22-6 5-13 8-23 8-10 0-18-3-24-8-5-5-8-12-8-22 0-10 3-18 9-23z m45 94l0 10c0 7 1 12 4 16 4 4 12 10 24 18 18 11 30 20 36 29 7 9 10 19 10 32 0 18-8 32-23 43-16 11-36 16-62 16-31 0-61-7-89-21l21-37c25 11 47 17 66 17 11 0 19-2 25-6 7-3 10-9 10-16 0-6-3-12-7-17-4-5-13-12-26-20-14-9-24-17-29-24-5-8-8-17-8-28l0-12z m-265 31c0 141 115 256 256 256 141 0 256-115 256-256 0-141-115-256-256-256-141 0-256 115-256 256z"/>
<glyph glyph-name="time" unicode="&#57455;" d="M256 0c-141 0-256 115-256 256 0 141 115 256 256 256 141 0 256-115 256-256 0-141-115-256-256-256z m0 465c-115 0-209-94-209-209 0-116 94-209 209-209 116 0 209 93 209 209 0 115-93 209-209 209z m-11-332c-6 0-12 2-17 7-9 9-9 24 0 33l89 88c9 9 24 9 33 0 9-9 9-23 0-33l-89-88c-4-5-10-7-16-7z m0 0c-13 0-23 10-23 23l0 200c0 13 10 23 23 23 13 0 23-10 23-23l0-200c0-13-10-23-23-23z"/>
<glyph glyph-name="social-facebook" unicode="&#57456;" d="M281 342l0-29 44 0-6-51-38 0 0-144-61 0 0 144-28 0 0 51 28 0 0 29c0 0-5 55 44 63l60 0 0-46-27 0c0 0-16 0-16-17z"/>
<glyph glyph-name="calendar-1" unicode="&#57457;" d="M481 46c-7-7-16-11-26-11l-399 0c-10 0-19 4-26 11-6 6-11 15-11 25l0 331c0 10 5 19 11 26 7 6 16 10 26 10l83 0 0 39 24 0 0-39 80 0 0 39 24 0 0-39 81 0 0 39 24 0 0-39 83 0c9 0 19-4 25-10 7-7 11-16 11-26l0-331c1-10-4-19-10-25z m-29 352l-79 0 0-44-24 0 0 44-81 0 0-44-24 0 0 44-80 0 0-44-24 0 0 44-79 0 0-85 391 0z m0-100l-392 0 0-223 392 0z m-282-80l-37 0 0 37 37 0z m0-93l-37 0 0 37 37 0z m104 93l-37 0 0 37 37 0z m0-93l-37 0 0 37 37 0z m105 93l-37 0 0 37 37 0z m0-93l-37 0 0 37 37 0z"/>
<glyph glyph-name="file" unicode="&#57458;" d="M409 15l-306 0c-32 0-57 25-57 55l0 372c0 31 25 55 57 55l129 0c26 0 60-13 79-31l123-117c18-18 32-51 32-76l0-203c0-30-25-55-57-55z m-2 308l-123 117c-1 1-3 3-6 4l0-127 134 0c-2 2-3 4-5 6z m21-50c0 9-3 20-8 30l-157 0 0 150c-11 5-22 8-31 8l-148 0 0-409 345 0 0 221z m-79-46l-186 0 0 15 186 0z m0-57l-186 0 0 15 186 0z m0-57l-186 0 0 14 186 0z"/>
<glyph glyph-name="social-google-plus" unicode="&#57459;" d="M357 350l0-41-13 0 0 41-41 0 0 14 41 0 0 40 13 0 0-40 41 0 0-14z m-104 36c16-10 25-28 25-48 0-19-11-34-26-45-14-11-16-16-16-26 0-8 16-20 25-26 27-20 32-33 32-59 1-34-34-64-90-64-49 0-91 23-91 55 0 48 34 64 84 64 5 0 10 0 15 0-7 6-12 12-12 22 0 6 2 11 4 16-2 0-5-1-8-1-40 0-64 29-64 64 0 35 36 66 79 66 22 0 85 0 85 0l-19-19-23 0z m-50-172c-31 0-57-12-57-34 0-22 23-41 55-41 45 0 61 18 61 40 0 3 0 6-1 8-11 27-46 27-58 27z m39 120c-4 28-18 50-40 51-21 0-41-19-37-48 4-28 25-47 46-48 22-1 34 17 31 45z"/>
<glyph glyph-name="social-instagram" unicode="&#57460;" d="M342 118l-183 0c-29 0-52 23-52 52l0 183c0 29 23 52 52 52l183 0c29 0 52-23 52-52l0-183c0-29-23-52-52-52z m-92 189c-25 0-46-20-46-46 0-25 21-46 46-46 26 0 46 21 46 46 0 26-21 46-46 46z m109 64l-46 0 0-46 46 0z m6-81l-39 0c3-9 5-18 5-28 0-44-37-81-81-81-44 0-80 37-80 81 0 10 2 19 5 28l-39 0 0-103c0-23 18-40 40-40l149 0c22 0 40 18 40 40z"/>
<glyph glyph-name="social-linked-in" unicode="&#57461;" d="M342 126l0 113c0 0-6 23-29 22-22-1-29-4-40-17l0-118-57 0 0 179 57 0 0-26c0 0 18 36 57 33 36-2 62-24 68-71l1 0 0-115z m-195 202c-19 0-34 15-34 34 0 19 15 35 34 35 19 0 34-15 34-35 0-18-15-34-34-34z m29-202l-58 0 0 179 58 0z"/>
<glyph glyph-name="social-pinterest" unicode="&#57462;" d="M369 290c-7-30-12-71-76-86 0 0-37-9-49 18-8-29-16-57-20-63-10-17-28-40-28-40 0 0 5 51 5 63 1 17 18 97 18 97 0 0-16 56 23 63 0 0 31 8 23-34 0 0-6-28-15-60l3-4c0 0 8-15 23-17 15-2 57 26 58 75 1 48-9 62-52 74-43 13-79-8-93-46-15-42-3-52 6-63l-6-28c0 0-41 13-40 57 1 43 26 109 116 109 88 0 110-84 104-115z"/>
<glyph glyph-name="social-pocket" unicode="&#57463;" d="M397 375c-4 10-14 17-25 17l-234 0c-11 0-21-7-24-17-1-3-2-6-2-9l0-87 1-17c4-39 25-74 56-98 0 0 1-1 1-1l1 0c17-12 36-20 56-24 9-2 19-3 28-3 9 0 18 1 27 2 1 0 2 1 3 1 1 0 1 0 1 0 20 4 38 13 54 24 1 1 2 1 2 1 31 24 52 58 56 98l1 17 0 87c-1 3-1 6-2 9z m-61-90l-67-65c-4-3-9-5-14-5-5 0-10 2-14 5l-67 65c-8 7-8 20 0 27 7 8 20 9 27 1l54-52 54 52c7 8 20 7 27-1 8-7 8-20 0-27z"/>
<glyph glyph-name="social-twitter" unicode="&#57464;" d="M393 352c-11-5-22-8-34-9 13 7 22 18 27 32-12-6-25-11-38-14-11 12-26 19-43 19-32 0-59-27-59-59 0-5 1-10 2-14-49 2-92 26-122 62-5-9-8-19-8-30 0-21 11-39 26-50-9 1-19 3-26 8 0 0 0-1 0-1 0-28 20-52 47-58-5-1-10-2-15-2-4 0-8 1-12 1 8-23 29-41 55-41-20-16-46-26-73-26-5 0-9 0-14 1 26-17 57-27 90-27 108 0 168 91 168 170 0 2 0 5 0 8 12 7 22 17 29 30z"/>
<glyph glyph-name="pause" unicode="&#57468;" d="M39 512l170 0 0-512-170 0z m264 0l170 0 0-512-170 0z"/>
<glyph glyph-name="play-circle" unicode="&#57435;" d="M256 491c129 0 235-106 235-236 0-129-106-235-235-235-129 0-235 106-235 235 0 130 106 236 235 236m0 20c-141 0-256-115-256-256 0-141 115-256 256-256 141 0 256 115 256 256 0 141-115 256-256 256z m-62-141l193-114-193-114z"/>
<glyph glyph-name="expando-left" unicode="&#57358;" d="M122 276l228 227c5 6 12 9 20 9 7 0 14-3 20-9 11-11 11-29 0-40l-207-207 207-207c11-11 11-29 0-40-6-6-13-9-20-9-8 0-15 3-20 9l-228 227c-5 5-8 13-8 20 0 7 3 15 8 20z"/>
<glyph glyph-name="expando-right" unicode="&#57359;" d="M398 256c0-7-3-15-8-20l-228-227c-5-6-12-9-20-9-7 0-14 3-20 9-11 11-11 29 0 40l207 207-207 207c-11 11-11 29 0 40 6 6 13 9 20 9 8 0 15-3 20-9l228-227c5-5 8-13 8-20z"/>
<glyph glyph-name="camera" unicode="&#57451;" d="M255 319c-44 0-79-35-79-82 0-46 35-78 79-78 44 0 79 37 79 81 0 44-35 79-79 79z m220 76l-67 0 0 35c0 34-19 34-35 34l-236 0c0 0-35 0-35-34l0-35-67 0c-28 0-35-9-35-35l0-278c0-25 7-34 35-34l442 0c28 0 35 9 35 34l0 278c-3 26-9 35-37 35z m-220-289c-72 0-130 57-130 131 0 75 58 135 130 135 72 0 129-58 129-132 0-74-57-134-129-134z"/>
<glyph glyph-name="team" unicode="&#57466;" d="M293 76c-29 16-57 26-70 28-8 2-8 27-8 27 0 0 27 27 33 62 16 0 26 38 10 51 0 14 21 108-78 108-98 0-78-94-78-108-14-15-6-51 11-51 6-35 32-62 32-62 0 0 0-25-8-27-28-4-137-51-137-104l231 0c0 35 35 59 62 76z m-41-76l262 0c0 2 0 4 0 6 0 6-4 10-6 14-8 13-21 23-35 31-10 6-22 12-33 17-6 2-10 4-14 6-4 0-8 2-10 2-6 0-6 18-6 18 0 0 18 19 22 43 10 0 17 27 6 37 0 2 0 4 0 6 0 2 0 6 0 10 0 5 0 9 0 13 0 2 0 4 0 6-2 8-4 12-8 20-4 9-8 13-16 17-8 4-19 6-31 6-70 0-57-68-55-78-13-10-4-37 6-37 4-24 22-43 22-43 0 0 0-16-6-18-8-2-18-6-33-13-6-2-10-6-16-8-6-4-10-6-16-10-9-6-15-12-21-18-8-9-12-17-12-27z m172 74c4-2 10-4 14-6-4 2-10 4-14 6z m6 157c4-6 6-14 8-20-2 6-4 12-8 20z m76-208c2-7 4-11 6-15-2 4-4 8-6 15z m-68 45c11-5 23-11 33-17-10 6-22 12-33 17z m-8 161c-4 9-8 13-16 17 8-4 12-8 16-17z m8-39c0 5 0 9 0 13 2-4 2-8 0-13z m68-170c-8 13-21 23-35 31 14-8 27-18 35-31z m-242 7c-8-9-12-17-12-27 0 10 4 18 12 27z m21 18c-9-6-15-12-21-18 6 8 12 14 21 18z m32 18c-6-2-10-6-16-8 6 4 10 6 16 8z"/>
<glyph glyph-name="add-team-member" unicode="&#57469;" d="M293 76c-29 16-57 26-70 28-8 2-8 27-8 27 0 0 27 27 33 62 16 0 26 38 10 51 0 14 21 108-78 108-98 0-78-94-78-108-14-15-6-51 11-51 6-35 32-62 32-62 0 0 0-25-8-27-28-4-137-51-137-104l231 0c0 35 35 59 62 76z m-41-76l260 0c0 2 0 4 0 6 0 6-4 10-6 14-8 13-21 23-35 31-10 6-22 12-33 17-6 2-10 4-14 6-4 0-8 2-10 2-6 0-6 18-6 18 0 0 18 19 22 43 10 0 16 27 6 37 0 2 0 4 0 6 0 2 0 6 0 10 0 5 0 9 0 13 0 2 0 4 0 6-2 8-4 12-8 20-4 9-8 13-16 17-9 4-19 6-31 6-70 0-57-68-55-78-13-10-4-37 6-37 4-24 22-43 22-43 0 0 0-16-6-18-8-2-18-6-33-13-6-2-10-6-16-8-6-4-10-6-16-10-9-6-15-12-21-18-6-9-10-17-10-27z m172 74c4-2 10-4 14-6-4 2-10 4-14 6z m6 157c4-6 6-14 8-20-4 6-4 12-8 20z m76-208c2-7 4-11 6-15-2 4-4 8-6 15z m-68 45c11-5 23-11 33-17-10 6-22 12-33 17z m-8 161c-4 9-8 13-16 17 8-4 12-8 16-17z m8-39c0 5 0 9 0 13 2-4 2-8 0-13z m68-170c-8 13-21 23-35 31 14-8 25-18 35-31z m-242 7c-8-9-12-17-12-27 0 10 4 18 12 27z m21 18c-9-6-15-12-21-18 6 8 12 14 21 18z m32 18c-6-2-10-6-16-8 6 4 10 6 16 8z m115 277l0 43-29 0 0-43-43 0 0-29 43 0 0-43 29 0 0 43 43 0 0 29z"/>
<glyph glyph-name="pointer-icon" unicode="&#57467;" d="M279 6c-3 0-3 0-5 0-2 0-4 2-6 6l-63 138-113-52c-4-2-6-2-10 0-2 2-4 6-4 8l22 383c0 5 2 7 6 9 5 2 9 2 11-2l303-230c2-2 4-6 4-10 0-4-2-6-6-8l-113-53 64-138c2-4 0-10-4-14l-80-37c-2 0-4 0-6 0z m-68 168c4 0 8-2 10-6l64-137 61 28-63 138c-2 4 0 10 4 14l108 51-274 207-21-344 107 49c2 0 4 0 4 0z"/>
<glyph glyph-name="video" unicode="&#57470;" d="M353 380c0 29-24 53-53 53l-247 0c-29 0-53-24-53-53l0-248c0-29 24-53 53-53l247 0c29 0 53 24 53 53l0 67 100-64c32-21 59-6 59 33l0 176c0 39-27 54-59 33l-100-64z"/>
<glyph glyph-name="building" unicode="&#57445;" d="M123 459l0-399 106 0 0 80 54 0 0-80 106 0 0 399z m80-253l-53 0 0 80 53 0z m0 133l-53 0 0 80 53 0z m80-133l-54 0 0 80 54 0z m0 133l-54 0 0 80 54 0z m79-133l-53 0 0 80 53 0z m0 133l-53 0 0 80 53 0z"/>
<glyph glyph-name="claim-your-home-icon-white" unicode="&#57471;" d="M256 322c-59 0-106-48-106-107 0-51 83-166 106-197 23 31 106 146 106 197 0 59-47 107-106 107m0-322c-2 0-4 0-6 2-4 6-115 150-115 213 0 66 53 121 121 121 68 0 121-53 121-121 0-63-111-207-115-213-2-2-4-2-6-2m0 264c-27 0-49-22-49-49 0-27 22-49 49-49 27 0 49 22 49 49 0 27-22 49-49 49m0-112c-35 0-63 28-63 63 0 35 28 64 63 64 35 0 63-29 63-64 0-35-28-63-63-63m133-107l-57 0 0 16 57 0c10 0 19 9 19 19l0 199 51 0c2 4 4 6 4 10 0 4-2 10-6 12l-189 191c-8 8-18 8-26 0l-189-189c-4-4-6-8-6-12 0-4 2-8 4-10l51 0 0-199c2-12 11-21 21-21l57 0 0-16-57 0c-19 0-35 16-35 35l0 182-43 0-2 2c-6 6-10 15-10 25 0 10 4 18 10 24l188 189c13 12 37 12 50 0l188-189c6-6 10-14 10-24 0-10-4-19-10-25l-2-2-43 0 0-182c0-21-16-35-35-35z"/>
<glyph glyph-name="smiley" unicode="&#57472;" d="M256 500c133 0 244-111 244-244 0-133-111-244-244-244-133 0-244 111-244 244 0 133 111 244 244 244m0 12c-141 0-256-115-256-256 0-141 115-256 256-256 141 0 256 115 256 256 0 141-115 256-256 256z m-78-211c0-10-8-18-18-18-10 0-19 8-19 18 0 10 9 18 19 18 10 0 18-8 18-18z m193 0c0-10-9-18-19-18-10 0-18 8-18 18 0 10 8 18 18 18 10 0 19-8 19-18z m-115-180c-82 0-96 82-96 82l-2 8 194 0-2-8c2 0-12-82-94-82z m-82 78c6-19 25-64 82-64 57 0 76 45 82 64z"/>
<glyph glyph-name="buildings-glance" unicode="&#57474;" d="M262 0l202 0 0 290-211 0 0-290z m0 16l8-8 0 274-8-8 193 0-8 8 0-274 8 8z m-203 470l0-486 94 0 0 75-9-8 41 0-9 8 0-75 94 0 0 382-5 2-193 109-13 7z m17 0l-12-7 193-109-4 7 0-369 8 8-76 0 8-8 0 76-57 0 0-76 8 8-76 0 8-8z m222-439l32 0 0 88-40 0 0-88z m0 17l8-8 0 70-8-8 24 0-8 8 0-70 8 8z m50-17l33 0 0 88-41 0 0-88z m0 17l9-8 0 70-9-8 25 0-8 8 0-70 8 8z m51-17l33 0 0 88-41 0 0-88z m0 17l8-8 0 70-8-8 24 0-8 8 0-70 8 8z m-99 88l32 0 0 87-40 0 0-87z m0 16l8-8 0 71-8-9 24 0-8 9 0-71 8 8z m51-16l32 0 0 87-41 0 0-87z m0 16l8-8 0 71-8-9 24 0-8 9 0-71 8 8z m50-16l33 0 0 87-41 0 0-87z m0 16l8-8 0 71-8-9 24 0-8 9 0-71 8 8z"/>
<glyph glyph-name="calendar-glance" unicode="&#57475;" d="M142 470l0 23c0 5-3 9-8 9-5 0-9-3-9-9l0-23-54 0c-13 0-22-11-22-22l0-417c0-10 11-21 22-21l375 0c11 0 21 9 21 21l0 417c0 11-10 22-21 22l-54 0 0 23c-2 5-5 9-11 9-6 0-9-3-9-9l0-23m0-19l0-14c-9-3-16-12-16-21 0-14 11-25 25-25 12 0 25 11 25 23 0 11-6 19-16 22l0 15 54 0c2 0 5-1 5-4l0-416c0-1-2-4-5-4l-373 0c-2 0-5 1-5 4l0 417c0 2 2 5 5 5l54 0 0-16c-9-3-16-12-16-21 0-14 11-25 25-25 14 0 25 11 25 25 0 11-6 18-16 21l0 16m252-94l-275 0c-14 0-21-10-21-22l0-252c0-10 10-21 21-21l276 0c11 0 22 9 22 21l0 252c0 12-9 22-23 22m0-278l-275 0c-1 0-4 1-4 4l0 252c0 2 1 5 4 5l276 0c2 0 5-2 5-5l0-252c-1 0-1-4-6-4"/>
<glyph glyph-name="heat-glance" unicode="&#57476;" d="M256 0c-47 0-89 31-102 76-13 46 5 94 45 120l0 259c0 32 26 57 57 57 31 0 57-25 57-57l0-259c40-26 58-74 45-120-13-45-55-76-102-76z m0 495c-23 0-41-18-41-41l0-268-4-2c-35-20-53-62-42-101 10-39 45-67 86-67 41 0 76 28 87 67 10 39-7 81-43 101l-4 2 0 269c0 22-17 39-39 40z m9-361l0 172c-1 4-5 7-9 7-4 0-8-3-9-7l0-172c-15-5-25-20-23-36 2-16 16-28 32-28 16 0 30 12 32 28 2 16-8 31-23 36z"/>
<glyph glyph-name="mls-glance" unicode="&#57477;" d="M460 22l-408 0c-29 0-52 23-52 52l0 364c0 29 23 52 52 52l408 0c29 0 52-23 52-52l0-364c0-29-23-52-52-52z m-408 452c-20 0-36-16-36-36l0-364c0-20 16-36 36-36l408 0c20 0 36 16 36 36l0 364c0 20-16 36-36 36z m71-144l-47 0c-11 0-20 9-20 21l0 47c0 11 9 20 20 20l47 0c11 0 20-9 20-20l0-47c0-6-2-11-6-15-3-4-9-6-14-6z m-47 72c-2 0-5-2-5-4l0-47c0-3 3-5 5-5l47 0c1 0 2 1 3 1 1 1 2 3 2 4l0 47c0 1-1 2-2 3-1 1-2 1-3 1z m47-190l-47 0c-11 0-20 9-20 20l0 48c0 11 9 20 20 20l47 0c11 0 20-9 20-20l0-47c0-6-2-11-5-15-4-4-10-6-15-6z m-47 72c-2 0-5-2-5-5l0-47c0-1 1-2 2-3 1-1 2-1 3-1l47 0c1 0 2 0 3 1 1 1 2 2 2 3l0 48c-1 2-3 4-5 4z m47-190l-47 0c-11 0-20 9-20 20l0 47c0 11 9 21 20 21l47 0c11 0 20-10 20-21l0-47c0-5-2-10-6-14-3-4-9-6-14-6z m-47 72c-2 0-5-2-5-5l0-47c0-2 3-4 5-4l47 0c1 0 2 0 3 1 1 1 2 2 2 3l0 47c0 1-1 3-2 4-1 0-2 1-3 1z m360 164l-241 0c-12 0-21 9-21 21l0 47c0 11 9 20 21 20l241 0c11 0 20-9 20-20l0-47c0-6-2-11-6-15-3-4-9-6-14-6z m-241 72c-3 0-5-2-5-4l0-47c0-3 2-5 5-5l241 0c2 0 5 2 5 5l0 47c0 2-3 4-5 4z m241-190l-241 0c-12 0-21 9-21 20l0 48c0 11 9 20 21 20l241 0c11 0 20-9 20-20l0-47c0-6-2-11-6-15-3-4-9-6-14-6z m-241 72c-3 0-5-2-5-5l0-47c0-1 0-2 1-3 1-1 2-1 4-1l241 0c1 0 2 0 3 1 1 1 2 2 2 3l0 48c0 2-3 4-5 4z m241-190l-241 0c-12 0-21 9-21 20l0 47c0 11 9 21 21 21l241 0c11 0 20-10 20-21l0-47c0-5-2-10-6-14-3-4-9-6-14-6z m-241 72c-3 0-5-2-5-5l0-47c0-2 2-4 5-4l241 0c2 0 5 2 5 4l0 47c0 3-3 5-5 5z"/>
<glyph glyph-name="parking-glance" unicode="&#57478;" d="M401 20c51 0 91 40 91 91l0 290c0 50-42 91-91 91l-290 0c-50 0-91-42-91-91l0-290c0-50 42-91 91-91z m0-20l-290 0c-60 0-111 49-111 111l0 290c0 60 49 111 111 111l290 0c60 0 111-49 111-111l0-290c0-62-49-111-111-111z m-245 113l0 288 92 0c35 0 58-2 70-5 16-5 30-13 41-28 12-15 17-33 17-57 0-18-4-33-10-44-7-12-15-22-25-28-10-7-20-12-30-14-13-3-34-5-61-5l-36 0 0-109-58 0z m58 238l0-81 31 0c23 0 38 2 46 5 9 3 14 8 19 15 5 7 6 13 6 23 0 10-3 20-10 27-6 6-13 11-23 13-6-2-20-2-41-2z"/>
<glyph glyph-name="laundry-glance" unicode="&#57479;" d="M414 49l-320 0c-7 0-12 5-12 12l0 381c0 6 6 12 14 12l319 0c7 0 12-5 12-12l0-379c0-7-6-14-13-14z m0-20c18 0 34 16 34 34l0 379c0 18-14 32-33 32l-319 0c-19 0-35-14-35-32l0-381c0-18 15-32 33-32z m-339 464l363 0c3 0 6 5 6 9 0 5-3 10-6 10l-363 0c-3 0-7-5-7-10 0-4 4-9 7-9m-3-113l366 0 0 21-366 0z m185-67c53 0 97-43 97-97 0-53-44-96-97-96-53 0-97 43-97 96 0 54 44 97 97 97z m0 21c-65 0-117-53-117-118 0-64 52-117 117-117 65 0 117 53 117 117 0 65-52 118-117 118z m-2-214c-52 0-95 42-95 95l-10 0-3-10c0 0 16-9 21-11 3-2 7-3 10-5 6-3 12-5 17-6 15-4 26 0 38 10 0 0 5 5 6 6 1 0 4 2 4 3 5 3 7 4 12 4 8 0 10-1 16-6 2-3 3-4 5-5 11-8 22-13 37-13 6 0 13 2 20 5 5 2 10 5 15 8 5 3 16 10 16 10l-3 10-10 0c-2-53-44-95-96-95z m0-21c63 0 114 52 116 116l1 14-14-4c-3-1-19-12-20-13-5-2-9-5-13-6-5-2-9-3-12-3-10 0-17 2-25 9-1 1-2 1-4 3-8 8-15 12-29 12-10 0-16-3-24-9-1-1-3-2-4-3-2-2-8-7-8-6-7-7-11-9-18-7-4 1-9 3-15 6-3 1-6 3-9 4-2 1-21 12-24 13l-13 4 0-14c0-64 52-116 115-116z m-135-54l0-38c0-3 4-6 9-6 5 0 10 3 10 6l0 38m238 0l0-38c0-3 5-6 9-6 5 0 10 3 10 6l0 38m-281 394c6 0 11-5 11-12 0-6-5-11-11-11-6 0-11 5-11 11 0 7 5 12 11 12m247 0c7 0 12-5 12-12 0-6-5-11-12-11-6 0-11 5-11 11 0 7 5 12 11 12m36 0c6 0 11-5 11-12 0-6-5-11-11-11-7 0-12 5-12 11 0 7 5 12 12 12m-71 0c7 0 12-5 12-12 0-6-5-11-12-11-6 0-11 5-11 11 0 7 5 12 11 12"/>
<glyph glyph-name="pets-glance" unicode="&#57480;" d="M319 216c3-22 14-41 31-54 58-46 5-137-64-110-19 8-42 8-62 0-69-27-122 64-63 110 16 13 28 32 31 54 10 73 116 73 127 0z m19 2c-13 96-152 96-166 0-2-16-11-30-24-41-76-59-6-179 83-143 15 6 33 6 48 0 90-36 159 83 83 143-13 11-21 25-24 41z m-179 247c27 3 54-22 59-57 5-36-14-68-41-71-27-4-54 21-59 57-5 35 14 67 41 71z m-3 19c-39-5-64-47-58-93 7-46 43-79 81-74 39 6 64 48 58 93-6 46-42 79-81 74z m178-148c-27 4-46 36-41 71 5 36 31 61 58 57 27-3 46-35 41-70-5-36-31-61-58-58z m-3-19c39-5 74 28 81 74 6 46-19 88-58 93-39 5-75-28-81-74-6-46 19-88 58-93z m-262-1c27 4 54-21 59-57 5-36-14-67-41-71-27-3-54 22-59 57-5 36 14 68 41 71z m-3 20c-38-6-64-48-57-93 6-46 42-80 81-74 38 5 64 47 57 93-6 46-42 79-81 74z m358-148c-27 4-46 35-41 71 5 36 32 61 59 57 27-4 45-35 41-71-5-36-32-61-59-57z m-3-19c39-6 75 28 81 73 6 46-19 88-58 94-39 5-74-29-81-74-6-46 19-88 58-93z"/>
<glyph glyph-name="eho" unicode="&#57473;" d="M27 287l0 61 18 12 66 46 32 22 33 23 33 22 47 31c2 2 4 2 6 0l10-6 23-17 45-30 22-17 48-31 41-32 30-21c2 0 2-2 4-4l0-61-30 0 0-183-396 0c-2 0-2 0-4 0l0 185z m381-121c0 51 0 102 0 153 0 0 0 3-2 3l-44 28-69 47-35 23c0 0-2 0-2 0l-12-8-31-21-29-20-30-21c-17-8-31-18-45-26-3 0-3-2-3-5 0-51 0-100 0-151l0-2z m-164-137c6-4 10-11 14-19-2 0-4 0-6 0 0 0 0 0-2 2-2 4-4 8-8 13-2 4-6 6-11 6-2 0-4 0-4 0l0-19-6 0 0 39 2 0c6 0 10 0 17 0 4 0 6 0 8-2 2-2 4-4 4-8 0-2 0-6-2-8 0-2-4-4-6-4z m-17 6c6 0 11 0 15 0 2 0 4 2 6 4 2 4 0 6-4 8 0 0 0 0-2 0-4 0-6 0-11 0l-4 0z m142-25c-4 0-7 0-9 4-6 9-12 19-16 27 0 0 0 0-2 2l0-31-4 0 0 41c2 0 2 0 4 0 0 0 2 0 2-2l14-22 7-9 0 31 4 0z m-291 0c-4 0-10 2-12 6-9 9-9 21 0 29 2 2 4 4 8 6 2 0 4 2 6 2 6 0 10-2 14-6 2-2 4-6 6-12 0-4 0-10-2-15-2-4-6-8-10-8-6-2-8-2-10-2z m0 4c4 0 6 2 8 4 0 0 2 2 2 5 2 4 2 8 2 10 0 4-2 6-4 8-4 6-12 6-16 2-4-2-7-4-7-8 0-2 0-6-2-8 2-4 9-11 17-13z m119-4c-4 0-11 2-13 6-2 4-4 9-6 13 0 4 0 8 2 12 2 4 6 8 10 10 5 2 9 2 13 0 6-2 12-6 12-12 2-6 2-12 0-16-4-9-12-13-18-13z m0 4c4 0 8 2 10 6 2 3 2 5 2 9 0 4 0 6-2 10-2 4-6 8-10 8-7 0-11-2-13-8-2-4-2-6-2-10 0-6 6-13 15-15-2 0 0 0 0 0z m-52 13l0-17-4 0 0 39 2 0c7 0 15 0 21 0 6-2 10-6 8-12 0-2-2-4-2-6-2-2-4-4-6-4-4 0-8 0-10 0-4 0-7 0-9 0z m0 6l13 0c4 0 6 2 6 6 0 0 0 2 0 2 0 2-2 4-2 4-2 0-6 2-8 2-2 0-7 0-9 0z m-36-23l-5 0 0 41c9 0 15 0 23-2 4-2 8-6 8-10 0-4-2-8-4-10 0 0-2-2-2-2-2 0-4-2-8-2-4 0-6 0-10 0z m0 23c4 0 8 0 10 0 2 0 4 0 6 2 2 2 4 4 2 6 0 2 0 4-2 6-6 2-10 2-16 2z m188 18l6 0 0-2c0-8 0-16 0-24 0-5 2-9 6-9 2 0 4-2 6 0 4 0 9 2 9 4 0 3 0 3 0 5 0 8 0 16 0 26l4 0c0 0 0-2 0-2 0-8 0-16 0-24 0-5 0-7-2-11-2-4-7-6-11-6-2 0-6 0-8 0-4 0-8 4-8 8 0 4 0 9 0 13-2 10-2 16-2 22z m-178 12l6-2-2-2c-2 0-4 2-4 2-2 2-4 2-6 0-9-4-17 0-21 9 0 0 0 2 0 2-2 6-2 10 2 16 2 4 6 6 10 8 7 2 11 0 15-4 2-2 4-6 4-10 0-4 0-10-4-14z m-2 3c2 2 2 4 2 4 0 2 0 6 0 8 0 4-2 8-6 10-4 2-11 0-13-2-4-4-4-10-2-16 2-7 8-9 15-7 0 0 0 0 2 0l-4 3c0 0 0 0 0 2 0 2 2 2 4 2 0-2 0-4 2-4z m276-7l-4 0c0 11 0 23 0 33 4 0 4 0 6-2l15-22 2-2 0 26 4 0 0-35c-2 0-2 0-4 0 0 0-2 0-2 2l-17 25-2 2z m58 13l-11 0 0 4 15 0c0-4 0-8 0-13-4-4-13-6-19-4-6 0-10 4-12 11-2 8 0 16 4 20 2 2 4 2 6 4 4 2 10 0 15-2 2-2 4-4 4-8l-2 0c-2 0-2 0-5 2-2 2-4 4-8 4-6 0-12-4-12-10 0-4 0-10 4-14 2-3 4-3 6-3 4 0 8 0 13 3 0 0 0 0 0 2 2 2 2 2 2 4z m-164-13c-8 0-15 4-17 13-2 6 0 12 2 16 2 4 7 6 13 6 4 0 10 0 12-4 2-2 4-4 4-8 0 0 0-2 0-2 2-6 0-12-4-17 0-4-4-6-10-4z m2 2c4 0 8 2 8 7 0 2 0 4 2 6 2 6-2 14-10 14-4 0-10-2-13-6-2-4-2-8-2-10 2-4 9-11 15-11z m-228-2l0 35 25 0 0-4-20 0 0-10 18 0 0-4-18 0 0-13 20 0 0-4z m183 21l18 0 0 14 4 0 0-35-4 0 0 17-18 0 0-17-4 0 0 35 4 0z m125 4l-4 0c-3 4-7 8-13 6-2 0-2 0-2-2-2 0-2-2-2-4 0-2 2-4 4-4 4 0 6-2 10-2 5 0 7-4 7-6 0-4 0-9-4-11-5-2-9-2-13-2-2 0-2 0-4 2-4 2-6 5-6 9 0 0 0 2 0 2 2 0 2 0 4 0 0 0 2 0 2-2 0-4 4-7 6-7 2 0 6 0 8 0 3 0 5 3 5 5 0 2-2 4-7 6-2 0-8 2-10 2-4 2-6 6-6 10 0 2 0 2 2 2 4 4 8 4 12 4 4 0 9-2 9-6 2 0 2 0 2-2z m-238 10l4 0 0-2c0-6 0-12 0-20 0-2 0-4 0-4 0-2 4-5 6-5 2 0 4 0 6 0 5 0 5 5 5 9 0 6 0 12 0 20l0 2 4 0c0 0 0-2 0-2 0-6 0-12 0-18 0-2 0-4 0-6-2-5-6-9-11-9-2 0-6 0-8 0-2 0-6 2-6 7-2 4-2 6-2 10 2 6 2 12 2 18z m64-35c-5 0-5 0-7 4l0 3c0 2 0 4-2 4-2 0-4 0-4 0l-10 0c0 0-2 0-2-2 0-2-2-5-2-9 0-2-2-2-2-2 0 0-2 0-2 0l10 27c0 2 2 4 2 6 0 2 2 2 2 2 2 0 4 0 4-2 2-10 6-20 13-31z m-23 15l12 0-6 16z m137 20l4 0 0-2c0-6 0-10 0-16 0-2 0-4 0-6 0-4 4-7 6-7 3 0 5 0 7 0 4 3 6 5 4 9 0 6 0 12 0 20l0 2 4 0 0-12c0-4 0-8 0-12 0-4-2-9-6-11-2 0-2-2-4-2-2 0-7 0-9 0-4 0-8 4-8 11 0 4 0 10 0 14 2 4 2 8 2 12z m115-43c4 2 8 0 8-4 2-4 6-10 8-14 4 6 9 10 11 16 0 2 2 2 4 2 2 0 2 0 4 0l-6-8c-4-4-7-10-11-14 0 0 0-2 0-4 0-5 0-11 0-15l-6 0c0 2 0 6 0 8 0 7-2 13-4 17-2 6-6 10-8 16z m-145-41l-7 0 0 35-12 0 0 4 31 0 0-4-12 0z m129 0l-7 0 0 35-12 0 0 4 33 0 0-4-12 0 0-35z m-207 53l16 0 0-4-20 0 0 35 4 0z m182-53l-4 0 0 41 4 0z m-2 49l-4 0 0 35 4 0z m-205 136l0 65 158 0 0-65z m0 141l158 0 0-66-158 0z"/>
<glyph glyph-name="play" unicode="&#57465;" d="M35 509l394-236c15-9 15-30 0-39l-394-230c-15-9-34 2-34 19l0 467c0 17 19 28 34 19"/>
<glyph glyph-name="snowflake-glance" unicode="&#57481;" d="M481 218c-1 4-6 7-11 6l-101-25-99 58 98 56 101-24 2 0c4 0 7 3 9 7 1 5-2 9-7 11l-82 19 80 46c4 3 6 8 4 12-2 4-8 6-12 3l-81-46 24 83c1 4-1 9-6 11-4 1-9-2-11-6l-29-100-97-56 1 112 70 75c4 4 3 10 0 12-4 4-10 3-13 0l-58-62 1 93c0 4-4 8-9 8-5 0-9-4-9-8l0-93-60 62c-3 4-8 4-12 0-3-3-3-8 0-12l72-75 0-114-98 57-30 99c-1 5-6 7-11 6-4-1-7-7-6-11l24-81-80 46c-4 3-9 2-12-2-2-4-1-10 4-13l80-46-84-21c-4-1-7-6-6-11 1-4 5-6 9-6l2 0 101 25 96-56-98-56-100 24c-5 1-10-2-11-6-1-5 2-10 7-11l82-19-80-46c-4-3-6-8-3-12 1-3 4-5 7-5 2 0 3 1 4 1l81 47-24-83c-1-4 1-9 6-11 1 0 2 0 2 0 4 0 8 2 8 6l30 100 98 57 0-114-70-75c-3-4-3-10 1-13 3-3 9-3 12 1l58 62-1-93c0-5 5-9 9-9 5 0 9 4 9 9l1 93 59-62c2-2 5-3 7-3 2 0 4 1 6 2 3 4 3 9 0 13l-73 75 1 112 97-57 30-99c1-4 5-6 8-6 1 0 2 0 2 0 5 1 7 7 6 11l-24 81 80-46c1-1 3-2 5-2 3 0 6 2 7 4 3 4 1 10-3 13l-80 47 83 20c5 1 8 6 7 11z"/>
<glyph glyph-name="hoa-glance" unicode="&#57488;" d="M92 304l19 0 0-45 51 0 0 45 20 0 0-109-20 0 0 46-51 0 0-46-20 0z m113-55c0 15 6 30 17 40 10 11 25 17 40 16 15 1 29-5 40-16 11-10 17-25 17-40 0-15-6-30-17-40-11-11-26-17-41-16-15 0-29 6-40 16-10 11-16 25-16 40z m94 0c0 10-3 20-10 28-8 7-17 11-27 11-10 0-20-4-27-11-7-7-11-17-10-27-1-10 3-20 10-28 7-7 17-12 27-11 10-1 20 4 26 11 7 7 11 17 11 27z m74 56l18 0 47-110-20 0-11 26-51 0-11-26-20 0z m28-66l-20 43-19-43z m-150-229c-136 0-246 110-246 246 0 136 110 246 246 246 136 0 246-110 246-246 0-65-26-128-72-174-46-46-109-72-174-72z m0 476c-127 0-229-103-230-230 0-126 103-229 230-229 126 0 229 103 229 229 0 127-102 230-229 230z"/>
<glyph glyph-name="lot-glance" unicode="&#57489;" d="M461 0l-401 0c-4 0-8 4-8 9l0 494c0 5 4 9 8 9l401 0c5 0 9-4 9-9l0-494c0-2 0-4-2-6-2-2-4-3-7-3z m-392 18l384 0 0 476-384 0z m392 96c-1 0-3 1-4 2l-401 232c-4 3-5 8-2 12 2 4 7 5 11 3l401-232c3-2 5-6 4-10-1-4-5-7-9-7z m-287 168c-3 0-6 2-8 4-2 3-2 7 0 9l126 213c2 3 7 4 11 2 4-2 6-7 4-11l-126-212c-1-3-4-5-7-5z m-21-282c-3 0-6 2-8 4-1 3-1 7 0 9l125 213c3 4 8 5 12 2 4-2 5-7 3-11l-124-212c-2-3-5-5-8-5z"/>
</font>
</defs>
</svg>
